<?xml version="1.0" encoding="utf-8"?><svg version="1.1" id="Layer_1" xmlns="http://www.w3.org/2000/svg" xmlns:xlink="http://www.w3.org/1999/xlink" x="0px" y="0px" viewBox="0 0 122.88 106.95" style="enable-background:new 0 0 122.88 106.95" xml:space="preserve"><style type="text/css"><![CDATA[
	.st0{fill:#51B53C;}
	.st1{fill:#983F15;}
	.st2{fill:#3E9C2A;}
	.st3{fill-rule:evenodd;clip-rule:evenodd;fill:#6F4A40;}
]]></style><g><path class="st2" d="M88.77,78.73H73.62v-6.57h15.83v-0.01c0.26,0,0.52-0.02,0.79-0.05c2-0.24,3.67-1.06,5.01-2.23 c1.3-1.14,2.19-2.54,2.71-4.01c0.48-1.39,0.63-2.89,0.46-4.31c-0.19-1.56-0.78-3.1-1.76-4.4c-0.1-0.14-0.21-0.27-0.32-0.41 l-1.38-1.61l-4.46-5.22c0.43-0.31,0.84-0.66,1.22-1.04c1.1-1.11,1.9-2.49,2.34-3.96c0.43-1.44,0.52-3.01,0.23-4.57 c-0.33-1.73-1.13-3.43-2.49-4.88L84,26.29l6.64-7.88c0.87-1.03,1.79-2.54,3.3-2.51c1.3,0.03,2.08,1.26,2.85,2.16l13.49,15.74 c1.47,2.1,0.21,4.31-2.33,4.31h-3.64l13.83,16.21c1.66,1.64,0.81,4.28-1.1,4.63H109l12.06,14.14l1.32,1.55 c1.01,1.16,0.5,3.79-1.67,4.05H98.97L88.77,78.73L88.77,78.73z"/><path class="st0" d="M94.32,70.59c0.33-0.22,0.64-0.46,0.93-0.72c1.3-1.14,2.19-2.54,2.71-4.01c0.48-1.39,0.63-2.89,0.46-4.31 c-0.19-1.56-0.78-3.1-1.76-4.4c-0.1-0.14-0.21-0.27-0.32-0.41l-1.38-1.61l-0.64-0.75V43.85c0.2-1.1,0.2-2.25,0-3.39v-24.5 c1.08,0.23,1.78,1.3,2.46,2.12l13.49,15.74c1.47,2.1,0.21,4.31-2.33,4.31h-3.64l13.83,16.21c1.66,1.64,0.81,4.28-1.1,4.63H109 l12.06,14.14l1.32,1.55c1.01,1.16,0.5,3.79-1.67,4.05H98.97l-4.65,0.01V70.59L94.32,70.59z"/><path class="st0" d="M35.14,65.38c-3.53,0.32-4.25-2.47-2.74-4.78l13.46-15.79l-0.39-0.39h-7.2c-2.61,0.38-3.58-2.44-1.99-4.43 l14.5-17.02h-4.24c-2.66,0.07-3.31-2.37-1.61-4.67L58.15,2.61c0.9-1.07,1.87-2.65,3.44-2.61c1.35,0.03,2.16,1.31,2.97,2.24 l14.04,16.38c1.52,2.19,0.22,4.49-2.43,4.49h-3.79l14.4,16.87c1.73,1.71,0.84,4.45-1.14,4.82h-8.37l12.54,14.74l1.38,1.61 c1.05,1.2,0.52,3.95-1.74,4.22C71.35,65.37,53.25,65.38,35.14,65.38L35.14,65.38z"/><path class="st2" d="M61.62,0c1.33,0.05,2.14,1.31,2.94,2.24l14.04,16.38c1.52,2.19,0.22,4.49-2.43,4.49h-3.79l14.4,16.87 c1.73,1.71,0.84,4.45-1.14,4.82h-8.37l12.54,14.74l1.38,1.61c1.05,1.2,0.52,3.95-1.74,4.22l-27.83,0.01V0L61.62,0z"/><path class="st0" d="M23.58,78.73H3.34c-3.39,0.31-4.08-2.36-2.63-4.59l12.94-15.16l-0.37-0.37H6.36 c-2.51,0.37-3.44-2.34-1.92-4.26l13.93-16.36h-4.06c-2.54,0.07-3.18-2.27-1.54-4.49l12.69-15.07c0.86-1.03,1.79-2.54,3.3-2.5 c1.3,0.03,2.08,1.26,2.85,2.16l7.26,8.47l-7.37,8.65c-0.18,0.18-0.35,0.37-0.51,0.57c-1.3,1.63-2.01,3.53-2.18,5.41 c-0.17,1.79,0.16,3.57,0.95,5.12c0.69,1.37,1.71,2.54,3.04,3.42l-5.51,6.46l0,0c-0.19,0.22-0.37,0.46-0.53,0.71 c-1.38,2.12-2,4.57-1.79,6.85c0.12,1.33,0.5,2.59,1.15,3.73c0.7,1.22,1.67,2.27,2.92,3.1c1.6,1.04,3.58,1.64,5.92,1.57 c0.07,0,0.14,0,0.21,0h14.29v6.57H33.79L23.58,78.73L23.58,78.73z"/><path class="st2" d="M29.09,15.96c1.1,0.21,1.82,1.3,2.52,2.13l7.26,8.47l-7.37,8.65c-0.18,0.18-0.35,0.37-0.51,0.57 c-0.92,1.15-1.54,2.44-1.89,3.77V15.96L29.09,15.96z M29.09,44.62c0.16,0.59,0.38,1.16,0.66,1.7c0.69,1.37,1.71,2.54,3.04,3.42 l-3.69,4.33V44.62L29.09,44.62z M29.09,70.65c1.59,1.01,3.54,1.59,5.84,1.52c0.07,0,0.14,0,0.21,0H49.4v6.57H33.79l-4.7,0V70.65 L29.09,70.65z"/><path class="st1" d="M12.73,106.95c-3.31,0-5.99-2.26-5.99-5.05c0-2.79,2.68-5.05,5.99-5.05c32.72,0,65.37-0.02,98.14-0.02 c3.21,0.1,5.77,2.32,5.77,5.04c0,2.79-2.68,5.05-5.99,5.05H12.73V106.95L12.73,106.95z"/><polygon class="st3" points="23.58,78.73 33.79,78.73 33.79,96.85 23.58,96.85 23.58,78.73"/><polygon class="st3" points="56.21,65.39 66.83,65.39 66.83,96.85 56.21,96.85 56.21,65.39"/><polygon class="st3" points="88.76,78.73 98.96,78.73 98.96,96.85 88.76,96.85 88.76,78.73"/></g></svg>