<?xml version="1.0"?>
<svg width="1161" height="1280" xmlns="http://www.w3.org/2000/svg" xmlns:svg="http://www.w3.org/2000/svg" preserveAspectRatio="xMidYMid meet">
 <metadata>Created by potrace 1.15, written by Peter Selinger 2001-2017</metadata>
 <g class="layer">
  <title>Layer 1</title>
  <g fill="#000000" id="svg_1" transform="translate(0 1280) scale(0.1 -0.1)">
   <path d="m9267,12704c-7,-94 -2,-109 54,-187c34,-47 38,-94 10,-128l-20,-24l-7,43c-6,39 -11,45 -55,68c-51,25 -89,31 -89,14c0,-22 31,-83 70,-137c44,-62 49,-91 24,-153c-19,-48 -44,-54 -44,-9c0,42 -47,89 -90,89l-32,0l27,46c15,25 24,51 22,58c-3,7 -26,16 -52,19c-41,6 -52,3 -92,-24c-36,-25 -125,-57 -165,-59c-4,0 -3,12 2,26c6,14 10,44 10,66c0,35 -6,47 -47,87l-46,46l-18,-40c-33,-72 -34,-99 -4,-158c33,-64 29,-96 -14,-126l-28,-20l-7,45c-6,47 -59,134 -82,134c-6,0 -19,-11 -28,-25c-29,-44 -29,-76 -2,-130c37,-72 34,-92 -30,-181c-75,-104 -86,-133 -78,-194c4,-29 3,-50 -3,-50c-26,0 -123,137 -123,174c0,9 13,40 30,69c32,57 31,77 -3,143c-18,35 -55,70 -64,60c-4,-3 -9,-44 -11,-91c-3,-62 -8,-85 -18,-85c-14,0 -84,96 -84,115c0,6 14,24 30,40c17,16 35,46 41,65c14,46 -2,81 -71,151l-49,50l-6,-28c-3,-15 -12,-53 -20,-83c-7,-30 -11,-71 -8,-89l6,-35l-42,33c-49,39 -51,58 -11,96c55,53 62,123 19,207c-29,57 -46,49 -87,-42c-20,-44 -39,-80 -43,-80c-14,0 -59,90 -59,118c0,25 -9,36 -47,62c-47,31 -50,32 -132,26c-46,-3 -86,-7 -89,-10c-2,-3 1,-19 8,-36c16,-39 74,-90 103,-90c75,0 149,-50 162,-111c10,-46 -1,-47 -39,-3c-32,37 -37,39 -93,39c-41,0 -68,-6 -88,-19l-29,-19l49,-45c65,-58 99,-72 183,-72c61,0 74,-4 111,-31c47,-34 48,-48 1,-29c-16,7 -47,12 -69,12c-42,-1 -145,-47 -136,-61c3,-5 26,-23 52,-40c53,-35 89,-39 173,-16c30,8 67,12 82,9c26,-5 108,-84 108,-103c0,-19 -17,-20 -48,0c-18,10 -45,19 -60,19c-48,0 -189,-104 -180,-132c3,-8 33,-16 78,-20c73,-6 113,1 205,35c22,8 44,13 49,10c4,-3 17,-26 29,-52c11,-25 39,-71 62,-101c106,-136 108,-215 11,-333c-19,-24 -44,-64 -55,-90c-11,-26 -24,-47 -29,-47c-13,0 -32,71 -32,118c0,32 7,49 32,77c21,24 34,52 39,83c9,57 -7,129 -31,142c-14,8 -22,0 -45,-43c-15,-29 -33,-58 -39,-66c-6,-7 -9,-28 -7,-47c1,-19 -2,-34 -8,-34c-12,0 -29,29 -34,57c-7,39 -49,103 -77,118c-21,11 -52,15 -98,13c-90,-4 -93,-21 -18,-94c45,-43 62,-54 89,-54c35,0 77,-30 77,-54c0,-11 -7,-11 -41,1c-37,12 -44,12 -66,-2c-27,-18 -40,-46 -49,-107l-7,-41l39,7c21,4 59,16 83,27c47,21 86,25 96,10c3,-6 9,-41 14,-78c5,-39 20,-91 35,-121c14,-28 26,-56 26,-61c0,-15 -28,-3 -80,34c-25,18 -103,65 -175,104c-140,78 -179,109 -231,185l-33,50l39,43c34,36 40,49 40,85c0,48 -57,163 -80,163c-14,0 -34,-68 -48,-160l-8,-50l-37,37c-41,40 -44,55 -22,98c9,16 18,50 21,75c7,44 6,45 -59,112c-82,84 -91,80 -90,-42c1,-97 -12,-111 -49,-49c-14,24 -38,44 -70,59c-46,21 -53,22 -106,10c-116,-28 -115,-25 -32,-83c61,-43 80,-52 117,-52c53,0 59,-23 10,-44c-21,-8 -40,-27 -50,-49c-32,-66 -27,-68 109,-36c97,24 127,22 162,-12c24,-22 24,-47 1,-40c-65,16 -90,13 -145,-20c-58,-35 -82,-63 -64,-74c6,-4 44,-9 84,-12c54,-4 86,-1 125,12c29,9 62,14 74,11c26,-6 153,-184 140,-196c-7,-7 -62,-14 -183,-22c-34,-3 -35,-1 -38,33c-6,78 -88,108 -181,69c-28,-13 -50,-28 -48,-33c9,-28 96,-88 138,-95c62,-11 57,-31 -25,-87l-69,-47l-25,27c-23,25 -30,27 -80,22c-41,-4 -62,-12 -81,-31l-25,-26l28,-29c16,-17 42,-33 57,-36c44,-10 45,-24 6,-60c-19,-18 -45,-51 -56,-74c-37,-71 -44,-58 -60,115c-6,55 -17,129 -25,165c-8,35 -16,92 -19,127l-4,62l33,-6c27,-5 38,-1 58,19c34,34 50,96 36,147c-15,54 -25,57 -44,11c-15,-39 -58,-80 -64,-62c-2,5 8,38 22,74c14,35 26,71 26,81c0,33 -39,92 -77,119c-66,45 -73,40 -73,-56c0,-72 3,-87 26,-120c26,-38 30,-87 7,-94c-6,-2 -17,13 -23,34c-23,71 -69,103 -150,103c-27,0 -50,-2 -50,-5c0,-4 7,-20 16,-36c8,-17 14,-40 12,-52l-3,-22l-22,24c-30,32 -47,71 -78,176c-22,73 -26,103 -21,157c5,70 22,119 43,125c7,3 26,-23 43,-57c27,-54 38,-64 83,-86c78,-36 146,-29 108,11c-5,6 -19,38 -31,73c-22,59 -40,82 -100,124l-25,17l28,26c38,34 49,32 72,-17c15,-33 31,-49 69,-67c46,-23 156,-42 156,-27c0,23 -55,107 -84,130c-20,15 -34,31 -31,35c2,5 32,11 66,15c91,9 145,44 175,112c13,30 24,64 24,75c0,19 -1,19 -42,-5c-24,-13 -61,-28 -83,-31c-30,-6 -52,-20 -85,-55c-49,-51 -100,-71 -100,-38c0,10 6,21 14,24c8,3 19,19 25,36c12,33 15,146 5,172c-10,26 -34,19 -34,-9c0,-16 -16,-43 -43,-73c-64,-69 -77,-92 -77,-134c0,-32 -5,-41 -37,-63c-21,-14 -47,-32 -59,-40c-21,-15 -21,-14 -27,49c-9,96 -28,133 -79,156c-76,34 -78,32 -71,-67c5,-89 9,-98 68,-179c14,-19 13,-25 -18,-77c-24,-40 -36,-74 -41,-117c-4,-36 -12,-60 -19,-60c-7,0 -38,38 -70,83c-32,45 -71,99 -87,121l-30,39l30,34c24,27 30,43 30,82c0,50 -23,121 -39,121c-22,0 -70,-54 -91,-102l-22,-52l-24,27c-29,34 -30,49 -3,107c12,25 21,64 21,88c0,46 -38,152 -54,152c-16,0 -59,-49 -74,-87c-13,-30 -14,-44 -3,-80c6,-24 9,-46 6,-50c-4,-3 -47,17 -96,46c-101,58 -138,63 -211,30c-49,-22 -90,-56 -90,-74c0,-16 84,-39 132,-38c21,1 40,-2 42,-6c3,-5 -12,-22 -34,-40c-22,-18 -40,-38 -40,-45c0,-8 26,-21 62,-31c51,-14 83,-16 165,-11l102,7l38,-35c39,-37 32,-47 -15,-22c-50,26 -98,29 -157,11l-56,-18l26,-27c15,-16 59,-42 99,-58c65,-27 76,-29 117,-20c67,15 95,4 161,-63c63,-64 71,-90 39,-130c-33,-43 -45,-74 -42,-112c1,-22 -2,-37 -7,-35c-5,1 -65,31 -133,66c-149,75 -221,89 -269,53c-34,-24 -52,-27 -44,-6c17,44 -45,28 -114,-30c-16,-14 -33,-25 -36,-25c-13,0 -5,27 21,65c38,55 36,142 -5,200c-35,50 -72,60 -72,18c0,-15 -9,-41 -20,-58c-25,-38 -25,-60 2,-124c17,-42 19,-60 12,-89c-13,-54 -38,-48 -71,18c-22,44 -39,62 -83,88l-55,33l-3,-26c-4,-33 14,-118 34,-161c11,-23 31,-40 70,-58l54,-26l0,-70c0,-38 -4,-70 -9,-70c-4,0 -26,12 -47,26c-49,34 -90,46 -131,38c-38,-7 -113,-69 -113,-93c0,-26 88,-46 200,-46l94,0l38,-70c21,-38 46,-77 55,-87c26,-29 8,-33 -59,-13c-35,10 -98,28 -140,39c-69,19 -83,27 -125,73c-51,55 -132,99 -193,105c-30,2 -35,0 -32,-17c6,-33 76,-109 110,-120c21,-6 32,-16 32,-27c0,-15 -9,-18 -55,-18c-30,0 -74,-5 -99,-12c-40,-11 -47,-9 -89,15c-67,40 -139,38 -198,-5c-24,-17 -47,-36 -51,-42c-12,-18 4,-28 36,-22c21,4 44,0 71,-14c22,-11 50,-20 63,-20c29,0 32,7 -71,-121c-86,-105 -107,-146 -107,-204c0,-44 1,-45 33,-45c18,0 53,10 77,23l45,22l6,90c6,93 28,155 56,155c17,0 16,-10 -2,-53c-15,-37 -11,-63 21,-130c11,-23 24,-37 33,-35c26,5 78,126 86,198c4,36 11,73 17,83c9,18 101,67 126,67c24,0 11,-29 -26,-56c-52,-38 -71,-66 -78,-118c-6,-37 -4,-47 10,-52c24,-9 86,43 116,99c36,65 68,96 112,107c43,12 63,8 227,-47c97,-33 109,-34 165,-25l60,9l41,-38c22,-20 53,-41 68,-44c15,-4 26,-12 24,-18c-2,-6 -55,-30 -118,-52c-96,-35 -118,-47 -136,-75c-28,-40 -29,-81 -5,-103c38,-35 94,-9 155,72c57,75 102,111 139,111l31,0l-50,-48c-35,-33 -57,-66 -72,-105c-11,-32 -21,-62 -21,-67c0,-18 24,-11 80,23c41,25 67,51 105,107c53,78 86,104 148,115c33,7 37,5 37,-14c0,-16 -6,-21 -28,-21c-42,0 -122,-90 -122,-138c0,-25 -6,-25 92,-6c19,4 57,30 99,70c67,63 69,64 123,64c65,0 134,-24 201,-70c60,-41 85,-66 85,-84c0,-23 -116,9 -177,49c-29,19 -64,35 -78,35c-52,0 -95,-74 -95,-162c0,-31 4,-38 20,-38c11,0 20,5 20,10c0,6 21,24 47,40c46,30 83,39 83,21c0,-17 -83,-77 -142,-104c-82,-37 -93,-62 -74,-173c8,-47 18,-89 21,-92c4,-4 35,22 68,58c51,53 64,75 74,119c16,67 49,121 74,121c26,0 24,-19 -7,-51c-33,-35 -35,-85 -5,-150c35,-77 44,-78 83,-12c44,77 47,90 36,157c-8,42 -7,60 2,71c19,23 78,18 126,-10c71,-41 115,-122 144,-260c5,-27 20,-71 31,-97c20,-42 31,-51 109,-93c85,-45 118,-73 254,-219c42,-45 46,-66 12,-66c-18,0 -29,10 -43,38c-42,81 -140,108 -202,56c-17,-14 -31,-31 -31,-38c0,-6 23,-17 52,-24c29,-6 59,-19 67,-27c14,-13 6,-15 -66,-15l-81,0l-20,48c-25,58 -55,87 -111,107c-58,20 -75,19 -121,-7c-48,-27 -51,-45 -10,-59c26,-10 79,-74 68,-84c-2,-3 -31,1 -64,7c-57,10 -65,9 -117,-15c-61,-28 -140,-95 -163,-138c-20,-39 -18,-42 19,-23c23,13 59,18 127,18c75,1 101,5 120,19c14,10 41,29 60,43c22,16 45,24 64,22c45,-5 41,-21 -9,-46c-53,-25 -84,-80 -85,-146c0,-38 0,-38 23,-22c12,9 43,27 69,41c25,13 70,51 99,84c59,68 83,81 142,81l42,-1l-53,-47c-50,-45 -53,-52 -59,-105c-7,-72 5,-78 81,-44c44,20 62,36 85,74c52,83 59,91 111,108c42,14 56,15 80,5c45,-19 102,-87 155,-186c27,-49 64,-114 83,-144c19,-30 50,-86 69,-125l34,-70l-2,-170c-3,-208 3,-249 52,-347c22,-43 39,-80 39,-83c0,-9 -124,-5 -182,5c-31,6 -96,26 -145,45c-48,19 -96,35 -106,35c-27,0 -79,30 -74,43c2,6 23,15 46,19c50,9 105,47 126,88c26,50 22,53 -57,47c-61,-4 -123,-23 -179,-54c-9,-5 -30,47 -24,58c4,5 31,9 62,9c47,0 61,5 94,31c22,17 46,44 54,60c19,35 19,78 1,85c-18,7 -112,-36 -167,-75l-44,-33l-3,37c-3,37 -1,42 66,141c31,45 33,54 30,111c-2,34 -7,66 -12,70c-13,13 -79,-32 -110,-75c-22,-32 -29,-53 -33,-108c-8,-129 -16,-137 -67,-78c-31,35 -120,78 -190,91c-26,5 -28,4 -21,-18c13,-45 66,-128 96,-153c21,-18 42,-26 69,-26c46,0 86,-31 96,-74l7,-29l-52,7c-68,9 -125,-8 -183,-54l-47,-37l20,-19c17,-16 37,-19 108,-18c53,0 103,6 129,16l43,16l66,-68c36,-37 66,-71 67,-75c1,-4 -74,-8 -166,-7c-127,1 -173,4 -196,16c-56,29 -222,231 -222,270c0,6 -25,60 -55,119c-54,106 -67,150 -51,175c11,18 19,15 75,-19c43,-27 57,-31 96,-27c28,4 59,16 81,33c33,25 35,29 20,40c-26,19 -154,58 -170,52c-18,-7 -43,20 -30,32c5,5 31,14 58,20c90,22 160,70 168,116c3,18 -4,21 -82,26c-46,4 -90,5 -96,2c-7,-2 -35,-31 -64,-64c-28,-32 -55,-59 -59,-59c-5,0 -11,31 -14,69c-6,74 -22,114 -56,145c-20,18 -21,18 -31,-10c-6,-16 -14,-56 -17,-89c-5,-55 -3,-65 26,-111c17,-28 31,-63 31,-77c0,-34 -20,-77 -36,-77c-7,0 -33,37 -58,83c-53,97 -71,118 -151,182c-130,106 -245,231 -245,269c0,19 2,19 50,5c40,-12 90,-6 90,11c0,22 -83,99 -140,129c-60,32 -69,46 -50,82c17,30 37,23 62,-23c13,-24 37,-49 53,-57c38,-18 115,-25 135,-12c12,8 10,15 -15,41c-16,17 -50,45 -77,63c-26,17 -50,38 -52,45c-10,22 48,13 89,-15c35,-24 50,-27 120,-28l80,0l3,35c3,52 -17,82 -68,102c-56,21 -100,22 -147,3c-44,-19 -82,-19 -89,-2c-3,8 11,37 31,66c37,56 42,79 24,130c-15,43 -39,40 -88,-15c-51,-55 -80,-116 -81,-168c0,-28 -10,-54 -36,-92c-19,-30 -37,-54 -39,-54c-2,0 -16,24 -33,53c-23,41 -43,60 -93,90c-35,20 -69,37 -76,37c-17,0 -16,-25 2,-88c19,-64 52,-103 120,-144c52,-31 65,-49 65,-95c0,-12 9,-42 20,-67c10,-25 15,-46 11,-46c-29,0 -162,54 -206,84c-64,42 -95,81 -151,188l-41,81l44,43l45,43l-4,70c-3,58 -8,75 -27,94l-22,22l-35,-40c-19,-21 -37,-49 -39,-62c-3,-13 -7,-34 -10,-48c-3,-14 -10,-25 -15,-25c-6,0 -36,25 -67,56c-55,56 -56,57 -43,88c7,17 15,56 17,87c4,52 2,58 -36,107c-51,64 -87,90 -103,74c-7,-7 -12,-36 -12,-64c-1,-42 5,-61 26,-93c16,-22 28,-47 28,-57c0,-15 -8,-13 -62,12c-35,17 -75,30 -89,30c-14,0 -36,11 -49,25c-12,13 -38,29 -57,36c-28,9 -39,8 -66,-8c-30,-18 -107,-108 -107,-126c0,-10 124,2 158,14c38,14 101,10 135,-8l32,-18l-55,-5c-63,-6 -83,-16 -123,-58l-28,-30l32,-11c47,-16 116,-13 184,8c74,23 99,16 156,-47c45,-48 41,-62 -13,-43c-65,23 -130,9 -172,-38c-15,-17 -16,-23 -6,-36c10,-12 37,-15 127,-15c143,0 171,-10 216,-82c19,-29 38,-64 42,-77l7,-24l-71,6c-85,7 -141,31 -159,69c-7,14 -28,40 -47,57c-34,29 -40,31 -121,31c-102,0 -104,-7 -18,-67c32,-23 59,-47 59,-54c0,-18 -155,-25 -186,-8c-37,20 -98,28 -138,18c-92,-23 -111,-31 -111,-44c0,-20 44,-41 118,-55c35,-7 61,-17 59,-23c-1,-5 -34,-28 -72,-49c-39,-22 -80,-49 -93,-61c-24,-23 -42,-74 -42,-125c0,-33 24,-92 38,-92c4,0 31,24 60,53c41,41 56,66 67,106c7,29 21,62 31,72c19,21 49,26 40,7c-29,-71 -32,-158 -5,-158c24,0 67,60 98,135c36,88 62,120 104,130c38,10 37,-19 -2,-39c-44,-23 -93,-136 -58,-136c6,0 39,13 72,28c47,23 68,40 95,81l35,52l80,-6c95,-8 175,-30 219,-61c77,-56 119,-76 193,-90c43,-8 95,-19 116,-25c46,-12 51,-39 7,-39c-16,0 -53,-9 -82,-20c-29,-11 -60,-20 -68,-20c-8,0 -28,18 -43,40c-63,88 -183,107 -253,39c-36,-34 -89,-108 -82,-114c2,-2 23,5 47,16c52,23 118,25 167,4c42,-17 39,-25 -18,-55c-24,-12 -67,-40 -97,-63c-52,-38 -56,-40 -85,-27c-74,32 -204,-4 -260,-73c-19,-24 -40,-55 -46,-71l-11,-29l63,5c40,4 88,17 132,37c38,17 73,28 78,23c12,-12 -46,-81 -119,-141c-35,-28 -66,-63 -69,-76c-5,-20 22,-221 32,-233c1,-2 29,24 62,57l60,60l-5,93c-6,91 -5,94 22,126c30,36 63,45 45,13c-17,-33 -12,-119 11,-172c12,-27 27,-49 33,-49c6,0 22,28 36,63c19,49 25,82 26,158c2,85 5,101 28,135c31,48 116,107 145,102c22,-3 22,-3 -3,-37c-17,-22 -26,-48 -26,-70c0,-54 24,-136 41,-138c8,-2 31,26 55,65c46,74 64,121 64,163c0,57 110,112 172,86c18,-8 51,-17 72,-21c108,-20 217,-110 276,-226c30,-58 51,-84 92,-116c62,-47 136,-140 140,-175c3,-24 2,-24 -78,-21c-92,2 -159,-16 -238,-67c-65,-40 -94,-40 -147,5c-52,43 -88,62 -159,84c-52,17 -55,19 -66,64c-7,26 -18,53 -24,61c-14,17 -73,35 -115,35c-38,0 -119,-47 -165,-95c-34,-36 -35,-37 -15,-51c20,-15 67,-15 168,2c29,5 37,3 37,-9c0,-9 -15,-20 -33,-26c-19,-7 -55,-25 -81,-41c-41,-27 -53,-29 -99,-24c-74,8 -131,-23 -173,-94c-33,-54 -50,-125 -38,-156c6,-15 10,-14 38,13c17,16 49,37 71,46c22,9 59,35 82,58c24,22 45,38 49,35c3,-3 -7,-42 -22,-87l-27,-80l-51,-11c-86,-18 -218,-61 -270,-87c-45,-23 -56,-24 -125,-18c-42,4 -176,9 -299,10c-259,3 -258,3 -286,91c-10,33 -25,66 -32,75c-22,24 -172,65 -193,52c-27,-17 -23,-36 24,-98c55,-73 58,-101 13,-120c-40,-16 -51,-9 -67,44c-8,28 -29,55 -69,90c-61,55 -73,59 -92,36c-8,-9 -21,-13 -37,-9c-17,5 -31,0 -48,-16l-24,-23l49,-44c41,-37 49,-49 44,-69c-4,-14 -1,-31 6,-39c7,-9 10,-18 7,-22c-4,-3 -46,-7 -95,-8c-72,-2 -97,-7 -140,-29c-29,-14 -52,-30 -52,-35c0,-5 -16,-28 -35,-51c-33,-39 -53,-98 -41,-118c3,-6 44,2 98,19c75,23 98,35 118,61c71,90 110,112 110,61c-1,-16 -7,-39 -15,-53c-16,-28 -20,-126 -6,-134c5,-3 44,23 88,57c58,48 85,78 106,119c26,52 57,78 92,78c23,0 18,-31 -12,-75c-24,-34 -28,-52 -31,-122c-2,-46 -1,-83 2,-83c7,0 197,193 241,244l30,35l95,2c52,0 99,0 103,0c35,-4 -140,-165 -190,-175c-15,-2 -47,-8 -70,-11c-58,-9 -93,-38 -244,-204c-114,-125 -249,-305 -249,-332c0,-5 -19,-9 -43,-9c-76,0 -140,-26 -185,-74c-39,-42 -45,-57 -57,-141c-9,-65 3,-71 70,-38c43,22 66,43 94,83c40,60 68,79 57,39c-3,-13 -17,-64 -29,-114l-24,-90l-76,-26c-88,-30 -101,-39 -139,-98c-20,-33 -28,-57 -28,-92l0,-47l57,15c79,20 84,24 118,82c17,28 37,51 47,51c15,0 15,-5 2,-57c-7,-32 -13,-75 -14,-96c0,-21 -12,-61 -26,-89c-25,-49 -26,-58 -20,-138c12,-145 58,-211 95,-135c7,17 24,50 37,75c12,25 28,66 34,90c10,42 9,50 -19,110c-25,52 -31,78 -31,130c0,113 23,144 46,63c25,-87 97,-183 137,-183c18,0 19,7 15,95l-4,94l-62,65l-62,64l0,71c0,58 3,73 17,78c11,4 21,0 27,-12c23,-40 93,-109 123,-121c37,-16 91,-18 112,-5c12,8 8,17 -22,50c-20,23 -37,44 -37,49c0,4 16,20 35,35c19,15 44,46 55,67c32,63 44,52 57,-50c19,-146 95,-281 174,-309l29,-10l-1,82c0,104 -14,146 -58,172c-18,11 -49,34 -68,51c-30,25 -36,38 -41,82c-6,64 13,71 43,14c26,-49 109,-92 177,-92c32,0 48,4 48,13c0,21 -105,161 -130,174c-14,7 -44,17 -67,23c-33,8 -43,16 -52,42c-14,39 -14,89 -1,124l11,27l24,-34c63,-90 90,-110 167,-124c35,-7 38,-5 38,15c0,30 -48,116 -74,133c-12,8 -37,19 -58,26c-20,7 -48,23 -62,36c-22,20 -26,33 -26,78c0,93 55,142 177,157l78,10l80,83c80,84 163,137 212,137c29,0 29,-8 -2,-61c-14,-24 -25,-60 -25,-79c0,-37 33,-120 48,-120c4,0 16,26 26,57c19,58 62,113 90,113c21,0 20,-19 -3,-77c-10,-26 -22,-66 -26,-88c-9,-49 -17,-55 -81,-55c-86,0 -125,-50 -140,-179c-8,-71 -1,-75 65,-41c40,20 63,45 93,99c35,63 51,21 23,-58c-8,-23 -28,-62 -46,-87c-38,-55 -46,-108 -29,-187l11,-57l66,63c81,77 97,109 77,156c-16,38 -19,147 -4,156c5,3 24,-25 42,-62c24,-50 47,-79 86,-110c29,-24 58,-43 64,-43c14,0 5,125 -12,161c-7,15 -34,43 -61,64c-76,57 -88,85 -78,173c8,70 20,102 40,102c5,0 9,-19 9,-43c0,-54 18,-80 83,-117c71,-41 87,-40 87,8c-1,53 -30,110 -83,160c-64,60 -72,101 -28,146c63,65 269,121 279,75c1,-8 -9,-21 -23,-29c-15,-8 -41,-32 -58,-54c-27,-34 -32,-50 -35,-108l-4,-68l28,10c52,18 85,53 104,110c10,30 24,55 32,55c20,0 47,-84 47,-150c1,-69 27,-122 63,-129c13,-3 52,-7 88,-10c36,-3 77,-8 92,-12c27,-6 28,-4 28,28c0,54 -36,98 -112,138c-80,42 -106,64 -124,107c-16,36 -18,73 -6,73c5,0 29,-15 53,-34c24,-18 61,-37 82,-40c35,-7 37,-5 37,19c0,14 -7,39 -15,56c-9,16 -13,34 -10,39c3,6 50,10 105,10c96,0 100,1 187,45c71,35 105,61 168,124c64,65 91,85 144,107c76,30 116,28 196,-11c66,-32 111,-80 183,-195l60,-95l105,-3c126,-3 127,-7 31,-82l-65,-51l-33,20c-50,31 -92,27 -131,-12c-47,-47 -54,-94 -23,-155c29,-56 48,-63 66,-23c21,47 52,81 74,81c15,0 18,-4 13,-17c-4,-10 -15,-38 -23,-63c-25,-73 -31,-85 -63,-105c-38,-25 -55,-56 -63,-120c-13,-91 -13,-91 -52,-54c-32,31 -41,34 -107,37c-70,4 -127,-8 -127,-27c0,-5 23,-17 50,-27c28,-10 62,-31 77,-46l27,-28l-100,0l-99,1l-32,44c-35,47 -40,49 -166,60c-77,6 -75,10 -40,-75c23,-57 41,-70 93,-70c69,0 83,-21 41,-64c-18,-18 -54,-44 -81,-56c-54,-25 -85,-72 -97,-144l-6,-37l73,35c84,40 100,54 126,101c25,47 46,44 72,-10c18,-36 31,-50 68,-65c25,-11 48,-20 51,-20c12,0 -12,71 -43,123c-19,32 -34,62 -34,67c0,25 111,43 125,21c3,-6 -4,-25 -15,-43c-31,-51 -26,-86 20,-142c22,-26 40,-50 40,-52c0,-3 -53,-2 -119,2c-130,8 -214,-6 -320,-52c-82,-36 -121,-33 -165,16c-43,48 -45,68 -10,101c54,51 71,130 37,179c-24,35 -33,40 -80,40c-47,0 -52,-9 -28,-50c19,-33 20,-110 2,-110c-8,0 -22,18 -32,39c-10,22 -28,50 -41,62c-20,19 -29,21 -92,14l-70,-7l-7,54c-4,29 -13,60 -19,69c-21,30 -81,76 -107,82l-27,7l-4,-78c-6,-86 6,-118 47,-128c53,-13 7,-74 -55,-74c-55,0 -120,-73 -120,-134c0,-35 30,-106 44,-106c22,0 60,49 96,123c27,56 40,73 59,75c20,3 23,1 16,-15c-4,-10 -12,-30 -18,-44c-14,-34 -1,-93 27,-126l24,-28l23,47c12,26 26,45 29,43c4,-3 10,-22 13,-43c4,-20 12,-46 20,-56c12,-16 17,-13 75,38c35,31 67,56 72,56c9,0 75,-120 68,-124c-2,-2 -19,-15 -39,-29c-46,-35 -91,-35 -140,-2c-53,37 -100,42 -142,16c-43,-26 -53,-26 -102,1c-22,12 -64,25 -94,29c-47,7 -61,4 -104,-17l-49,-25l23,-25c41,-44 101,-66 158,-58c65,8 66,-2 7,-77l-44,-56l-76,0c-87,0 -111,-12 -160,-81c-27,-38 -28,-44 -16,-67c22,-40 46,-41 110,-1c32,20 63,36 69,36c19,0 12,-33 -24,-104c-39,-78 -41,-95 -21,-154c29,-82 86,-144 86,-93c0,10 11,43 25,73c30,65 31,100 4,144c-21,34 -23,85 -3,91c6,2 17,-9 23,-25c7,-16 29,-46 50,-66l38,-37l6,28c3,15 9,56 12,89c7,56 5,66 -20,107c-29,51 -28,68 10,110c33,34 46,27 34,-18c-7,-26 -6,-42 5,-63c15,-28 82,-82 103,-82c30,0 32,100 3,140c-36,50 -53,100 -39,116c21,26 74,17 119,-21c23,-19 53,-38 66,-41c28,-7 83,13 150,55c49,32 84,40 84,20c0,-31 -45,-77 -132,-135c-73,-48 -106,-76 -130,-114c-18,-28 -42,-52 -53,-54c-11,-2 -47,-9 -79,-15c-33,-6 -64,-15 -69,-20c-10,-10 -38,-143 -31,-150c2,-2 19,10 39,28c57,50 105,38 105,-26c0,-29 -5,-35 -51,-58c-43,-22 -54,-34 -79,-87l-29,-60l20,-51c11,-28 23,-55 26,-59c6,-11 33,10 33,26c0,6 14,40 31,76c28,59 32,63 42,45c8,-13 11,-59 9,-129l-2,-109l48,-51c27,-28 54,-62 61,-74c20,-37 36,-26 49,36c19,92 16,106 -34,168c-53,64 -74,101 -74,127c0,32 25,17 52,-33c19,-34 40,-56 67,-70c53,-26 61,-25 61,8c0,63 -21,102 -86,164c-61,59 -65,65 -62,102c4,50 23,57 37,13c14,-42 64,-91 113,-111c55,-23 68,-21 68,13c0,40 -37,89 -97,130c-129,89 -107,171 81,294c68,45 90,67 124,121c59,93 152,152 138,89c-4,-16 -8,-50 -10,-77c-4,-46 -7,-52 -52,-84c-64,-46 -70,-55 -94,-131c-34,-106 -25,-114 51,-50c27,22 54,55 61,75c20,55 40,40 55,-41c12,-64 12,-71 -4,-83c-114,-81 -108,-74 -107,-133c1,-54 37,-149 60,-156c6,-2 11,13 12,38c3,60 22,118 46,135c30,20 36,2 34,-94c-2,-96 8,-115 87,-169c53,-37 68,-38 73,-3c5,31 -41,148 -73,184c-26,30 -51,103 -40,115c4,3 15,-5 24,-19c44,-67 129,-135 147,-118c8,8 -24,116 -42,143c-8,11 -38,34 -67,51c-44,26 -54,37 -69,80c-19,56 -22,94 -8,94c5,0 26,-18 47,-41c21,-23 50,-47 66,-55c28,-15 93,-22 103,-11c12,11 -106,131 -153,157c-107,57 -88,197 33,255c34,16 40,16 108,0c111,-27 214,-72 304,-134c176,-119 202,-125 303,-72c38,20 82,34 118,38c56,5 60,4 76,-21c19,-29 61,-35 110,-16c34,13 145,-8 145,-27c0,-11 -20,-19 -101,-38c-15,-4 -39,-20 -55,-36c-33,-35 -74,-39 -74,-9c0,35 -44,70 -88,70c-66,0 -142,-73 -142,-135c0,-9 11,-9 43,3c47,17 117,10 117,-12c0,-12 -64,-64 -124,-100l-32,-19l-57,26c-70,34 -133,36 -172,5c-29,-23 -85,-104 -85,-124c0,-7 24,-14 63,-17c51,-4 71,-1 116,19c63,28 61,28 61,9c0,-8 -30,-43 -66,-77c-73,-70 -94,-102 -94,-148c0,-31 41,-123 60,-135c5,-3 30,13 55,36l45,42l0,101c0,103 4,116 43,145c16,13 17,12 7,-13c-5,-15 -10,-43 -10,-63c0,-48 30,-143 45,-143c18,0 64,72 79,122c10,32 11,59 4,107c-8,49 -7,70 3,88c13,25 66,59 76,49c3,-3 -2,-26 -11,-52c-19,-56 -20,-91 -5,-167c17,-83 30,-88 70,-25c34,52 34,54 34,170c0,108 2,118 23,141c46,49 104,64 267,72c120,5 167,3 235,-10c47,-9 118,-21 159,-26c151,-19 256,-58 431,-162c188,-112 390,-263 390,-292c0,-7 -18,-15 -42,-19c-24,-4 -70,-22 -103,-40c-87,-49 -166,-66 -305,-66c-141,0 -153,7 -125,69c29,65 23,104 -26,165c-29,36 -48,51 -55,45c-6,-5 -21,-36 -33,-68c-16,-43 -19,-70 -15,-105c10,-66 -15,-61 -67,15c-28,41 -52,66 -76,76c-43,17 -114,22 -120,7c-2,-5 23,-46 56,-91c50,-69 66,-83 108,-98c26,-10 56,-25 66,-33c16,-14 14,-16 -20,-32c-21,-9 -43,-23 -49,-31c-12,-15 -25,-119 -15,-119c4,0 22,11 42,24c19,13 51,31 70,39c19,8 50,29 69,46c27,25 41,31 60,26c44,-11 54,-28 37,-61c-8,-16 -26,-41 -41,-56c-22,-25 -32,-28 -92,-28c-49,0 -76,-5 -104,-21c-35,-20 -41,-30 -64,-103c-30,-92 -33,-154 -11,-196c14,-27 14,-33 0,-60c-8,-16 -15,-39 -15,-51c0,-20 4,-21 55,-17c42,4 66,13 101,38c26,18 49,29 54,24c12,-12 -6,-98 -26,-128c-35,-54 -15,-137 54,-225l19,-24l32,67c48,100 49,124 11,207c-31,68 -34,104 -8,93c7,-3 22,-24 33,-46c24,-51 61,-79 106,-81c32,-2 34,0 32,31c-2,46 -44,106 -98,138c-70,40 -87,86 -63,165c13,46 34,51 43,9c4,-16 18,-38 31,-49c24,-19 122,-46 132,-37c2,3 1,21 -2,41c-5,26 -26,57 -67,101c-52,56 -59,68 -59,105c0,37 6,48 48,89c49,49 105,70 189,70c25,0 53,12 95,40c84,56 93,54 58,-15c-11,-22 -20,-49 -20,-61c0,-25 -17,-34 -63,-34c-74,0 -141,-77 -141,-162c0,-26 3,-50 7,-54c8,-9 62,30 126,90l53,51l-6,-55c-8,-64 -14,-71 -64,-85c-64,-18 -124,-133 -106,-202c4,-13 11,-23 16,-23c6,0 39,29 73,65c58,59 63,63 69,42c10,-39 6,-87 -10,-118c-9,-18 -13,-41 -9,-58c9,-44 120,-141 160,-141c20,0 23,6 27,47c4,56 -18,110 -73,175c-21,26 -39,57 -39,70c1,21 3,20 33,-14c18,-20 52,-46 77,-57c45,-20 95,-28 88,-13c-43,98 -73,143 -123,186c-57,49 -57,49 -53,98c3,27 8,51 12,55c13,13 38,-25 43,-68c6,-48 24,-74 65,-95c36,-18 72,-18 88,2c21,25 -12,115 -55,151c-19,15 -50,41 -69,56c-19,15 -40,43 -46,63c-16,47 11,94 63,111c49,16 65,9 162,-72c132,-109 181,-160 236,-242c29,-43 87,-114 129,-158c48,-50 102,-121 143,-190c74,-122 190,-395 200,-470c12,-83 47,-145 120,-208c49,-44 75,-77 106,-136l40,-77l-19,-31c-10,-18 -20,-53 -22,-80c-4,-67 -26,-67 -61,0c-15,29 -40,60 -55,69c-26,15 -102,35 -102,26c0,-2 11,-33 25,-68c27,-70 51,-101 106,-136c29,-18 38,-31 42,-61c2,-21 8,-48 12,-60c15,-47 -24,-22 -93,60c-81,96 -88,109 -103,176c-8,38 -19,57 -45,78c-18,15 -50,41 -69,56c-41,34 -44,60 -14,120c12,23 22,54 21,69c-1,33 -26,85 -60,120c-20,22 -28,25 -39,16c-43,-35 -55,-113 -26,-173c9,-19 14,-37 11,-41c-9,-8 -147,75 -158,96c-5,9 -8,40 -8,68c2,58 -17,93 -65,122c-52,32 -142,23 -102,-10c15,-13 75,-118 75,-132c0,-19 -31,-5 -96,42c-57,42 -76,50 -112,50c-48,0 -100,-19 -121,-44c-13,-15 -10,-20 20,-47c54,-47 74,-52 159,-38c59,9 81,9 98,0c33,-18 27,-31 -14,-31c-43,0 -95,-30 -124,-70l-21,-29l38,-11c21,-5 62,-13 90,-16c50,-6 54,-5 93,30c22,20 47,36 55,36c26,0 115,-49 115,-64c0,-8 -22,-18 -59,-26c-41,-8 -67,-21 -84,-39c-24,-26 -54,-98 -44,-107c3,-3 24,0 47,6c40,11 44,10 71,-16c46,-44 39,-52 -43,-47c-84,6 -108,18 -143,73c-30,48 -66,68 -139,76c-67,8 -68,5 -27,-83c24,-50 35,-64 58,-68c42,-9 73,-23 73,-33c0,-5 -21,-15 -46,-22c-37,-11 -56,-11 -94,-1c-66,17 -82,6 -126,-81c-31,-61 -34,-73 -21,-85c25,-25 118,9 183,68c30,27 59,49 64,49c15,0 12,-23 -6,-48c-21,-31 -16,-126 8,-130c29,-5 99,68 130,136c33,73 56,88 121,78c53,-8 70,-33 29,-42c-68,-17 -142,-75 -142,-113c0,-15 115,-14 143,0c12,7 43,31 69,55c26,24 55,44 65,44c47,0 233,-111 295,-176c48,-51 111,-155 99,-167c-5,-5 -30,2 -60,17c-47,24 -51,29 -51,62c0,46 -50,99 -103,109c-71,14 -79,-26 -21,-102c35,-46 31,-53 -30,-53c-53,0 -55,1 -90,49c-26,37 -45,53 -72,60c-38,11 -121,4 -130,-10c-6,-11 63,-87 87,-94c10,-4 19,-12 19,-20c0,-17 -32,-25 -100,-25c-91,0 -133,-36 -146,-123c-6,-42 -4,-47 13,-47c47,0 112,33 158,80c63,64 83,65 50,4c-28,-53 -32,-92 -10,-100c8,-3 38,7 67,23c40,21 58,38 73,71c21,43 39,62 63,62c10,0 9,-5 -2,-22c-15,-21 -24,-138 -11,-138c20,0 68,37 118,89c41,43 65,61 83,61c33,0 97,-33 130,-67c29,-31 74,-119 74,-146c0,-10 20,-37 45,-59c50,-45 54,-64 26,-99l-19,-24l-29,27c-59,56 -105,53 -171,-12c-27,-27 -30,-35 -20,-48c10,-11 29,-13 90,-9c92,6 95,2 42,-66l-36,-46l-45,31c-25,17 -56,31 -69,31c-50,0 -120,-79 -99,-112c8,-14 76,-14 111,-1c17,7 31,7 37,1c13,-13 -41,-91 -78,-111c-16,-9 -40,-35 -53,-58l-23,-42l25,-55c14,-30 29,-55 33,-55c5,0 27,18 48,41c39,39 40,41 40,115c0,55 4,77 15,84c30,19 38,12 30,-27c-6,-26 -5,-45 6,-65c17,-33 91,-75 106,-60c16,16 -1,86 -33,137c-35,55 -37,100 -6,145c38,57 50,52 42,-19c-6,-55 -4,-66 16,-96c13,-19 27,-35 31,-35c4,0 19,23 34,51l25,51l-21,54c-23,56 -22,89 6,132c21,32 80,30 154,-8c61,-31 92,-64 129,-137c17,-33 21,-61 21,-129c0,-69 7,-108 32,-193c32,-103 32,-111 31,-276c-1,-95 -6,-183 -13,-199c-6,-16 -32,-56 -59,-90c-61,-78 -71,-97 -71,-140c0,-64 -51,-39 -76,36c-12,39 -32,69 -78,114c-34,33 -70,76 -81,94c-31,53 -59,64 -138,56c-37,-4 -67,-11 -67,-16c0,-5 12,-22 26,-39c17,-21 35,-31 54,-31c17,0 30,-7 34,-16c4,-9 5,-17 4,-18c-2,-1 -29,-14 -61,-29c-31,-15 -66,-27 -77,-27c-11,0 -37,-7 -58,-16c-31,-12 -41,-23 -51,-53c-27,-90 -5,-149 44,-117c53,35 97,81 121,127c25,50 56,68 91,55c14,-6 11,-12 -18,-42c-30,-31 -34,-41 -33,-83c2,-50 19,-95 34,-89c21,8 88,113 94,147c8,52 28,68 59,48c27,-17 57,-74 57,-106c0,-12 16,-39 37,-61c29,-33 36,-49 37,-85c1,-24 -2,-47 -6,-51c-4,-4 -36,6 -70,21c-85,38 -141,42 -197,13c-25,-13 -46,-28 -48,-34c-2,-6 19,-23 46,-37c65,-36 119,-36 160,-1c27,23 34,24 49,13c41,-33 41,-44 -3,-65c-43,-20 -75,-83 -75,-146c0,-71 10,-76 68,-39c36,23 55,43 66,71c9,22 20,40 25,40c6,0 28,-31 51,-68c49,-83 51,-123 14,-219c-25,-65 -27,-81 -35,-328c-10,-335 -21,-442 -53,-532c-53,-149 -66,-296 -57,-653c3,-135 3,-135 -48,-333c-28,-109 -51,-207 -51,-218c0,-19 16,-19 691,-19l691,0l-6,38c-3,20 -8,69 -11,107c-4,39 -13,104 -21,145c-11,54 -14,132 -12,275c4,321 2,374 -20,485c-32,160 -32,161 -37,535c-10,751 -5,1015 25,1190c7,40 7,99 0,180c-5,66 -12,174 -14,240c-4,97 -12,147 -41,260c-47,179 -45,223 11,315c70,112 138,137 226,81c48,-31 88,-78 88,-106c0,-22 -17,-53 -47,-84c-55,-60 -86,-181 -45,-181c52,1 132,61 132,100c0,26 21,90 29,90c14,0 51,-78 51,-108c0,-22 -13,-46 -46,-84c-65,-74 -101,-158 -78,-181c9,-9 56,12 82,36c12,11 25,38 28,59c10,62 35,46 59,-39c4,-15 -6,-50 -29,-102c-41,-89 -42,-98 -21,-169c11,-34 22,-53 36,-57c11,-4 22,-5 23,-3c29,42 66,112 76,141c15,49 9,81 -35,169c-19,40 -35,78 -35,85c0,26 30,12 66,-31c20,-24 54,-52 75,-61c36,-17 40,-17 63,-1c22,14 24,19 15,44c-18,47 -56,87 -123,131c-53,35 -75,58 -117,123c-28,44 -49,81 -47,84c3,2 30,-2 61,-8c68,-14 105,-4 126,34c14,24 14,28 -4,48c-10,11 -42,27 -70,35c-45,13 -59,14 -106,2l-54,-14l-72,65c-78,71 -80,82 -18,102c45,15 139,-1 206,-36c46,-23 71,-28 165,-34c107,-5 133,-13 156,-45c14,-18 8,-46 -23,-110c-26,-55 -29,-70 -23,-112c9,-62 11,-66 35,-49c41,28 69,78 69,123c0,48 13,55 47,23c32,-29 36,-53 19,-110c-8,-28 -13,-58 -10,-68c10,-29 49,-102 55,-102c3,0 15,18 27,39c18,32 20,44 12,66c-12,31 -13,75 -2,75c4,0 20,-10 35,-23c22,-17 29,-33 34,-75c7,-62 33,-94 106,-130c54,-27 67,-23 67,19c0,62 -56,141 -124,176c-40,20 -76,53 -76,70c0,17 31,16 102,-3c32,-9 61,-14 65,-10c11,10 -15,54 -41,71c-26,17 -102,22 -156,10c-21,-5 -35,0 -55,18c-42,35 -26,50 45,42c55,-6 59,-5 94,25c20,18 36,37 36,44c0,18 -91,51 -140,50c-25,0 -65,-6 -90,-13c-43,-13 -48,-13 -83,10c-20,13 -35,28 -34,34c2,5 24,21 50,35c25,14 58,32 74,41c15,9 42,20 60,23c26,6 35,3 50,-15c63,-78 77,-89 141,-113c37,-14 71,-26 75,-26c15,0 6,36 -21,85c-20,38 -41,58 -85,84c-53,32 -56,35 -42,51c20,22 64,31 97,22c14,-4 54,-38 88,-77c63,-70 88,-91 96,-82c3,2 5,25 6,51c1,51 -16,77 -64,102c-18,9 -25,20 -22,29c8,20 87,20 103,1c7,-8 31,-21 54,-29c40,-13 45,-12 91,12c28,14 51,31 53,36c4,12 -124,95 -147,95c-8,0 -25,-7 -38,-15c-28,-20 -102,-42 -125,-37c-35,7 -16,46 29,60c53,17 74,53 74,126c0,33 -4,56 -11,56c-37,0 -169,-125 -169,-160c0,-49 -28,-90 -75,-110c-26,-11 -49,-20 -51,-20c-13,0 0,51 21,82c14,20 25,48 25,62c0,25 25,54 195,230c33,34 81,76 107,94c42,29 57,33 141,39c155,10 207,-11 207,-82c0,-30 -5,-39 -31,-53c-64,-35 -86,-60 -107,-127c-35,-106 -28,-116 49,-67c33,22 51,43 73,90c16,34 35,63 43,66c20,8 33,-35 33,-110l0,-64l-46,-28c-38,-22 -53,-41 -86,-106c-21,-43 -37,-80 -35,-83c3,-2 21,-1 41,2c24,5 46,19 67,44c79,94 84,96 94,52c7,-34 -11,-74 -50,-111c-48,-45 -49,-54 -19,-146c15,-47 32,-83 38,-81c14,5 58,69 87,126c21,42 22,50 11,113c-7,38 -12,80 -12,93c0,37 27,31 47,-10c22,-47 83,-67 150,-49c41,11 35,34 -26,95c-46,46 -67,60 -100,65c-57,9 -71,23 -92,90c-25,79 -24,84 11,84c22,0 43,-12 74,-40c24,-22 47,-40 51,-40c14,0 -6,75 -32,118c-28,49 -69,78 -124,87c-41,7 -89,52 -89,84c0,32 131,41 235,17c52,-13 66,-22 110,-69c55,-61 159,-131 181,-123c37,14 -7,94 -70,126c-60,31 -67,45 -25,54c56,11 103,6 137,-14c29,-18 32,-24 32,-68c0,-63 47,-143 79,-135c17,4 21,13 21,50c0,24 -9,61 -20,83c-25,49 -25,50 0,50c34,0 73,-26 118,-79c33,-39 54,-54 94,-66c28,-8 53,-13 56,-10c2,2 1,25 -2,50c-7,41 -14,51 -69,95c-57,46 -66,49 -118,50c-56,0 -97,18 -86,37c4,6 26,15 50,21c68,17 114,81 96,131c-8,21 -14,23 -50,18c-54,-7 -113,-49 -148,-107l-29,-48l-74,-4c-40,-3 -77,-1 -83,4c-5,5 5,23 27,46c41,41 58,78 58,124l0,30l-48,-7l-49,-6l-81,79l-81,79l32,16c18,8 58,25 91,36l58,21l37,-30c53,-42 105,-48 170,-20c28,13 56,31 61,41c21,38 -97,94 -158,75c-35,-12 -35,13 1,49c41,41 76,51 135,37c34,-7 56,-7 89,3c48,15 93,41 93,54c0,11 -123,61 -148,61c-49,0 -98,-26 -158,-81c-60,-56 -94,-73 -94,-47c0,6 12,36 26,66c30,63 27,86 -17,137c-46,52 -61,47 -94,-36l-27,-70l22,-62c12,-34 23,-75 23,-92c2,-27 -4,-33 -52,-57c-52,-27 -101,-36 -101,-20c0,4 10,23 22,42c18,28 22,50 22,107c0,95 -10,105 -64,65c-67,-49 -75,-66 -75,-162l0,-85l-98,-32c-54,-17 -113,-43 -132,-57c-18,-14 -38,-26 -44,-26c-7,0 -11,27 -11,68c0,84 14,100 92,111c56,7 128,50 128,76c0,12 -43,25 -84,25c-11,0 -48,-14 -80,-30c-33,-17 -61,-28 -64,-26c-2,3 -1,22 4,43c4,21 7,50 6,64c-2,14 9,45 22,70c14,24 33,77 42,118c20,88 97,210 159,253c103,70 143,83 255,85c96,1 113,4 192,37c128,52 187,47 271,-25c45,-39 48,-45 44,-78c-2,-20 -15,-62 -27,-94c-19,-47 -21,-65 -14,-94c5,-20 14,-38 21,-40c6,-2 30,12 52,33c36,32 41,42 41,80c0,37 3,44 19,44c20,0 56,-38 66,-70c4,-11 -6,-40 -24,-72c-16,-29 -30,-69 -31,-88c-5,-92 3,-99 57,-45c32,32 35,40 30,75c-6,45 0,48 34,21c20,-16 24,-31 30,-100c6,-92 20,-118 88,-165c53,-39 64,-28 63,62c0,86 -14,114 -86,176c-80,68 -71,98 18,61c39,-16 131,-12 142,7c8,12 -23,46 -58,64c-15,8 -56,14 -93,14c-37,0 -76,5 -88,11c-26,14 -97,80 -97,91c0,13 44,8 64,-7c37,-28 156,-16 156,16c0,11 -89,64 -148,89c-47,20 -57,22 -91,10c-37,-12 -41,-11 -112,32c-41,25 -74,49 -74,54c0,17 71,44 117,44c40,0 53,-6 94,-41c65,-56 83,-66 132,-77c47,-11 49,-7 26,41c-10,21 -34,43 -66,61c-42,24 -48,30 -36,42c20,20 102,29 137,15c16,-7 43,-30 60,-51c31,-39 125,-100 155,-100c41,0 -7,98 -69,142c-25,18 -45,35 -45,39c0,4 20,11 44,14c36,6 56,1 114,-24c45,-20 87,-31 117,-31l46,0l-18,31c-37,62 -90,124 -117,137c-24,12 -33,11 -80,-12c-29,-14 -69,-26 -89,-26c-30,0 -34,3 -30,19c3,11 22,35 44,54c44,40 48,63 18,101c-29,37 -55,32 -104,-20c-43,-45 -47,-56 -60,-140c-5,-34 -12,-44 -41,-57c-19,-10 -46,-17 -60,-17l-26,0l38,51c29,40 39,63 42,105l4,53l-29,-8c-75,-22 -119,-69 -128,-139c-3,-26 -9,-53 -14,-61c-7,-13 -117,-45 -351,-101c-47,-11 -110,-27 -140,-35c-65,-18 -211,-20 -227,-4c-9,9 -6,23 12,57c24,44 22,70 -4,87c-6,3 -7,21 -4,40c7,46 -13,123 -43,162c-32,42 -30,49 11,63c19,6 44,23 55,37c41,52 50,146 15,159c-8,3 -46,-9 -84,-26c-54,-25 -72,-39 -80,-61c-5,-16 -13,-29 -16,-29c-13,0 -94,63 -99,76c-3,8 13,35 35,61c93,113 107,131 141,184c49,77 125,121 179,104c12,-4 52,-35 88,-69c72,-68 137,-96 185,-80l26,9l-29,60c-34,72 -68,95 -152,102c-47,5 -59,9 -59,23c0,33 137,55 173,28c9,-7 25,-33 35,-58c18,-43 111,-140 133,-140c22,0 32,49 19,95c-10,36 -22,52 -56,76c-43,30 -58,59 -29,59c8,0 38,-21 66,-46c51,-45 54,-46 101,-40c29,4 56,2 69,-5c21,-11 21,-10 15,27c-10,52 -28,79 -77,111c-39,26 -42,26 -87,13c-59,-17 -114,-19 -119,-4c-2,7 12,22 32,34l37,23l-6,91c-11,172 -13,191 -23,216c-19,44 -51,65 -104,66c-81,2 -93,4 -109,14c-25,17 24,50 74,50c45,0 105,38 92,58c-4,7 -30,19 -59,27c-122,35 -192,14 -216,-68c-13,-41 -19,-49 -50,-58c-20,-6 -50,-9 -66,-7c-28,3 -29,4 -11,18c56,46 66,60 66,92c0,66 -29,72 -100,20c-51,-37 -68,-62 -76,-110c-5,-33 -14,-49 -40,-69l-34,-25l-45,41c-24,22 -54,41 -66,41c-22,0 -22,-3 -3,-101c4,-22 -5,-35 -55,-82c-61,-56 -194,-137 -225,-137c-15,0 -17,8 -11,58c3,31 13,76 21,99c14,37 19,42 56,48c47,8 146,90 118,98c-8,2 -30,9 -49,15c-28,10 -38,9 -51,-3c-9,-8 -22,-15 -28,-15c-15,0 -16,35 -1,61c16,31 89,79 121,79c35,0 39,31 6,54c-36,25 -67,19 -104,-19c-18,-19 -38,-35 -44,-35c-22,0 -40,67 -34,124c5,41 3,59 -10,77c-23,33 -21,43 23,107c94,140 238,215 311,165c34,-23 40,-33 40,-68c0,-16 8,-41 18,-55c26,-37 110,-120 122,-120c6,0 10,26 10,60c0,54 -3,63 -35,99c-45,50 -44,61 5,61c74,0 87,-13 94,-94c13,-138 21,-189 32,-193c18,-6 72,63 85,107c11,37 10,46 -10,87c-25,52 -21,64 17,42c21,-11 30,-28 42,-78c13,-54 22,-70 59,-102c50,-45 66,-48 74,-17c8,27 -9,152 -23,179c-12,21 -45,40 -105,59c-22,7 -43,17 -46,23c-4,5 9,34 29,63l36,54l56,-1c33,0 85,-11 130,-27c85,-31 110,-58 130,-144c7,-29 21,-77 32,-105c15,-42 24,-53 42,-53c17,0 24,9 34,45c8,31 9,52 2,71c-14,35 -8,39 29,19c35,-18 37,-26 16,-85c-8,-23 -15,-63 -15,-89c0,-28 -8,-62 -20,-84l-21,-39l23,7c42,13 67,34 94,81l27,46l15,-28c13,-24 13,-33 -2,-79c-22,-71 -21,-88 15,-162c34,-72 44,-72 80,-2c29,58 25,114 -17,203c-19,43 -34,86 -32,97c3,19 6,18 46,-13c99,-75 106,-79 142,-76c44,4 43,21 -5,95c-28,43 -43,55 -90,72c-31,12 -73,21 -93,21c-30,0 -50,10 -100,50c-34,28 -62,55 -62,60c0,6 26,10 58,11c67,1 126,19 130,42c3,17 -101,81 -163,100c-32,9 -39,7 -86,-26l-51,-36l-73,34c-116,52 -115,52 -82,64c16,6 35,11 43,11c20,0 107,45 157,81c83,60 141,58 207,-6c44,-43 97,-65 155,-65c43,0 46,1 40,23c-17,56 -65,95 -147,121c-51,16 28,52 94,43c29,-4 49,-16 81,-49c23,-25 63,-59 90,-77c40,-27 48,-30 53,-16c15,37 -5,90 -46,125c-22,20 -40,39 -40,42c0,4 20,10 44,13c37,6 53,2 105,-25c76,-40 105,-37 183,17c57,38 85,73 75,91c-4,5 -60,15 -125,22c-117,12 -121,12 -185,-11c-36,-13 -69,-20 -73,-16c-4,3 11,26 33,50c23,24 46,53 52,65c13,25 4,29 -82,38c-57,6 -66,4 -89,-17c-14,-13 -34,-47 -43,-76c-22,-70 -49,-103 -85,-103c-16,0 -50,-10 -75,-22c-24,-12 -47,-19 -51,-15c-3,3 -1,20 5,38c6,18 11,46 11,63c0,35 -45,109 -63,103c-6,-2 -23,-26 -37,-53c-20,-39 -25,-61 -23,-111l3,-62l-90,-51c-93,-52 -177,-80 -240,-80c-57,0 -153,29 -180,55c-14,13 -38,27 -55,30c-56,12 -56,12 -43,39c17,39 43,41 102,10c61,-32 108,-28 153,11l28,24l-58,25c-32,14 -64,26 -73,26c-8,0 -24,5 -35,11c-19,10 -20,12 -4,29c18,20 49,34 111,49c57,15 83,47 94,117c13,77 13,114 -1,114c-19,0 -166,-111 -177,-133c-6,-12 -18,-40 -27,-62c-19,-49 -43,-75 -66,-75c-15,0 -16,5 -8,32c12,43 12,105 -1,128c-13,25 -63,59 -101,70l-32,9l7,-37c4,-20 11,-66 17,-101c5,-35 18,-79 29,-96c24,-38 26,-88 5,-105c-20,-16 -35,-4 -35,28c0,45 -50,98 -109,117l-23,7l3,-80c3,-64 9,-86 26,-109c70,-89 76,-103 65,-128c-16,-35 -72,-67 -202,-115c-187,-68 -213,-83 -270,-155c-62,-78 -143,-149 -195,-171l-38,-15l7,43c3,24 11,86 17,137c12,116 36,189 99,306c50,94 70,168 70,263l0,54l36,-21c19,-12 45,-21 57,-21c25,0 87,35 87,49c0,12 -57,45 -103,60c-48,16 -54,28 -28,54c18,18 24,20 39,9c39,-28 93,-52 114,-52c29,0 98,46 98,65c0,15 -68,55 -95,55c-9,0 -15,9 -15,25c0,29 9,30 65,10c22,-8 46,-15 54,-15c25,0 131,53 131,66c0,19 -48,73 -81,89c-45,24 -72,18 -113,-24c-39,-40 -77,-56 -94,-39c-5,5 -7,28 -5,51c3,30 -2,51 -16,75c-26,41 -44,41 -69,0c-32,-52 -35,-81 -16,-141l17,-56l-26,-40c-32,-48 -57,-54 -57,-13c0,57 -65,127 -112,120c-21,-3 -23,-8 -20,-52c1,-27 18,-87 38,-137c40,-99 55,-181 43,-243c-12,-65 -48,-154 -75,-184l-24,-27l-20,24c-25,30 -25,45 2,81c19,27 20,33 9,71c-12,40 -66,107 -77,97c-2,-3 0,-27 6,-53c18,-80 -10,-75 -55,9l-29,56l22,29c35,48 29,86 -22,137c-24,24 -48,44 -54,44c-14,0 -22,-36 -22,-108c0,-46 -3,-63 -12,-60c-7,2 -36,38 -64,79l-50,74l-64,3l-63,3l17,-26c13,-19 16,-37 11,-65c-5,-32 -3,-40 14,-49c11,-6 34,-11 51,-11c39,0 90,-21 114,-49l19,-21l-41,0c-55,0 -82,-26 -82,-80c0,-35 3,-40 23,-40c13,0 52,14 86,31l63,32l26,-20c28,-21 60,-68 52,-77c-3,-2 -26,1 -52,6c-40,10 -54,8 -87,-7c-22,-10 -47,-25 -56,-35c-13,-15 -12,-18 23,-34c65,-32 90,-36 134,-20c76,26 85,22 108,-52c42,-137 17,-209 -54,-153c-20,16 -25,26 -20,45c7,28 -21,66 -68,90c-26,14 -78,19 -78,9c0,-3 18,-38 40,-77c48,-84 43,-99 -23,-80c-40,11 -43,10 -68,-17c-15,-16 -32,-52 -39,-80c-17,-73 -3,-83 48,-37c22,20 43,33 45,29c3,-5 0,-27 -6,-50c-13,-50 4,-123 29,-123c13,0 52,73 102,193c22,51 82,28 82,-32c0,-38 -54,-151 -88,-186c-34,-34 -48,-40 -187,-84c-38,-12 -101,-41 -138,-63c-38,-22 -70,-38 -72,-36c-1,1 1,30 6,63c5,33 6,94 2,136l-6,77l57,16c56,17 58,18 86,79c15,34 31,77 34,95c5,29 3,32 -20,32c-37,0 -79,-25 -105,-62c-48,-69 -69,-66 -57,10c11,69 18,77 63,73c56,-4 102,30 120,92c8,28 15,59 15,69c0,19 -1,19 -27,1c-42,-28 -81,-43 -114,-43c-27,0 -29,2 -18,21c6,11 31,30 56,41c63,28 77,63 51,132c-10,28 -21,57 -24,65c-7,20 -44,-18 -96,-98c-35,-53 -44,-76 -48,-125c-4,-46 -9,-62 -22,-64c-10,-2 -19,6 -23,20c-4,13 -15,31 -24,42c-17,19 -83,56 -101,56c-17,0 -11,-92 9,-137c12,-25 35,-52 59,-68c43,-28 62,-60 62,-105c0,-38 -13,-38 -40,1c-21,29 -34,37 -89,54c-23,7 -24,6 -19,-43c6,-62 28,-98 73,-119c37,-18 60,-60 50,-92c-6,-18 -140,-101 -165,-101c-7,0 -9,16 -4,48c6,45 4,50 -34,92c-22,25 -43,42 -47,38c-4,-4 -10,-36 -12,-71c-4,-51 -1,-73 16,-112c22,-49 29,-125 11,-125c-5,0 -21,18 -35,40c-26,42 -52,54 -104,48l-31,-3l29,-61c31,-67 36,-71 96,-94c45,-18 53,-39 35,-95c-13,-40 -52,-65 -99,-65c-22,0 -46,14 -88,51c-69,60 -77,77 -69,149c8,81 37,155 95,244c107,164 141,259 161,451c6,55 17,122 25,149c8,27 15,75 15,106c0,31 5,83 11,115c6,32 12,153 14,269c3,225 19,478 31,498c26,45 86,105 133,135c53,34 56,35 81,19c65,-42 113,-58 153,-53c40,5 93,36 91,53c-3,14 -137,86 -171,91c-18,3 -33,9 -33,13c0,4 18,27 39,52c26,29 54,49 81,57c65,19 82,56 78,163c-2,48 -8,91 -12,95c-4,5 -39,-26 -77,-67c-53,-59 -69,-84 -74,-115c-3,-22 -8,-52 -11,-66c-6,-29 -59,-97 -69,-88c-3,4 -1,34 6,67c11,54 11,63 -5,87c-15,23 -20,25 -31,14c-19,-21 -52,-118 -60,-174c-11,-89 -14,-95 -62,-125c-57,-36 -63,-37 -63,-5c0,33 56,239 81,294c11,26 62,88 127,155c59,61 123,131 142,156c82,110 210,210 284,224c59,11 116,-10 167,-63c52,-54 77,-114 86,-207l6,-62l-34,-7c-56,-12 -118,-95 -119,-159l0,-39l44,41c44,40 81,63 124,76c20,7 22,4 22,-33c0,-51 -34,-81 -93,-81c-32,0 -46,-6 -71,-33c-29,-31 -62,-105 -51,-116c13,-12 119,23 150,51c19,16 39,28 44,26c6,-1 -1,-30 -15,-63c-20,-47 -24,-73 -21,-120c6,-111 59,-173 108,-129c22,20 59,85 59,105c0,6 -18,48 -40,92c-28,60 -38,90 -34,110c7,31 22,36 30,10c18,-57 37,-84 76,-106c51,-29 98,-42 98,-27c0,28 -89,170 -133,212c-38,37 -48,53 -45,74c5,42 24,39 58,-8c54,-74 131,-99 184,-57c14,11 26,24 26,29c0,14 -147,108 -195,125c-69,23 -103,43 -109,62c-3,10 -10,51 -16,92c-6,41 -13,84 -16,97c-5,19 -2,24 12,24c15,0 134,-29 142,-35c1,-1 -5,-18 -13,-38c-13,-32 -13,-41 -1,-70c7,-19 26,-44 42,-56l29,-23l3,28c6,65 35,164 47,164c22,0 45,-12 45,-23c0,-6 -9,-30 -21,-54c-34,-70 -4,-149 70,-188l28,-14l12,77c11,67 10,82 -3,115c-15,35 -15,37 2,37c33,0 62,-30 77,-83c30,-103 79,-148 181,-164c42,-7 43,3 9,98c-40,113 -65,138 -146,153c-36,6 -75,37 -62,49c3,4 29,7 56,7c74,0 112,23 143,86c15,30 24,57 21,60c-13,14 -112,-21 -154,-53c-57,-44 -102,-63 -145,-63c-64,0 -79,40 -21,54c44,11 71,33 93,76c17,34 27,90 16,90c-2,0 -34,-14 -72,-30c-52,-24 -83,-46 -126,-93l-57,-62l-73,1c-104,3 -298,76 -298,113c0,4 45,15 100,25c93,15 105,20 192,77c120,79 169,104 292,145c227,78 343,91 429,50c47,-23 64,-55 72,-137c4,-35 11,-77 17,-93c12,-30 116,-118 130,-110c4,3 8,31 8,62c0,55 -1,57 -55,108c-49,47 -55,57 -55,93c0,23 4,41 9,41c24,0 96,-94 136,-177c40,-83 45,-100 45,-163c0,-48 -4,-72 -12,-74c-7,-3 -25,-7 -40,-10c-34,-8 -58,-43 -65,-94c-8,-62 12,-69 81,-25c47,29 60,33 67,22c20,-31 5,-61 -45,-88c-64,-34 -92,-90 -76,-151c6,-22 19,-44 29,-49c15,-8 22,-4 39,28c25,44 59,77 69,67c4,-4 0,-29 -10,-55c-32,-91 -23,-112 69,-171c78,-49 86,-46 92,37l4,58l-56,63c-50,57 -69,92 -48,92c4,0 23,-18 42,-40c30,-34 44,-42 94,-51c39,-7 62,-7 69,0c13,13 -94,133 -156,173c-26,17 -52,39 -57,49c-11,20 -13,79 -3,79c4,0 28,-22 53,-50c41,-44 51,-50 86,-50c50,0 68,12 59,38c-10,32 -101,108 -146,121c-48,15 -84,61 -94,121c-4,24 -15,68 -25,97c-17,51 -17,53 1,53c10,0 40,-8 66,-19c26,-10 81,-26 121,-36c39,-9 72,-20 72,-23c0,-3 -11,-20 -25,-38c-38,-50 -45,-75 -29,-106c14,-27 107,-108 124,-108c5,0 6,47 3,104c-6,111 -1,126 39,105c52,-27 59,-38 43,-76c-19,-44 -6,-95 37,-147c52,-63 58,-53 71,123c3,43 17,48 53,18l28,-24l-18,-47c-31,-81 2,-165 91,-234l33,-24l10,27c18,46 12,112 -15,165c-14,27 -25,52 -25,55c0,15 24,0 74,-45c37,-34 60,-66 72,-98c34,-91 68,-111 207,-122c164,-13 168,-1 41,122c-53,51 -106,98 -117,105c-12,7 -47,12 -78,13c-45,0 -60,4 -77,23c-30,32 -28,37 19,37c46,0 109,33 109,57c0,25 -55,71 -95,79c-26,4 -61,1 -105,-10c-58,-15 -72,-16 -120,-4c-43,11 -55,19 -55,34c0,17 8,19 67,22c60,3 70,6 92,32c27,33 62,117 53,127c-4,3 -26,-2 -50,-11c-23,-9 -53,-16 -65,-16c-41,0 -89,-27 -111,-63c-29,-48 -70,-64 -122,-48c-54,16 -49,41 12,58c25,7 56,24 69,38c25,26 43,104 32,135c-7,19 -13,17 -90,-32c-48,-30 -96,-69 -115,-94c-37,-50 -45,-51 -150,-25c-98,26 -100,27 -318,167c-109,70 -143,84 -204,84c-48,0 -55,3 -55,20c0,24 188,217 199,204c4,-5 13,-40 19,-77c6,-38 16,-74 22,-82c10,-12 139,-50 146,-42c2,2 -7,19 -21,37c-14,19 -34,58 -45,88c-12,30 -30,66 -40,80c-27,34 -25,41 15,58c43,18 55,12 55,-27c0,-47 26,-97 62,-119c53,-32 57,-28 42,53c-19,104 -18,107 14,107c44,0 53,-11 42,-50c-18,-64 -13,-109 18,-139c28,-27 107,-59 119,-48c3,4 -1,24 -9,44c-26,65 -51,144 -46,149c11,11 36,-9 56,-44c43,-77 61,-87 179,-90l105,-4l-7,24c-3,12 -35,51 -71,86l-64,62l-70,0c-58,0 -71,3 -80,19c-9,18 -4,21 44,35c42,12 61,25 90,60c20,24 36,52 36,62c0,43 -234,-20 -280,-76c-21,-25 -32,-30 -67,-30c-55,0 -58,25 -7,58c50,33 110,172 73,172c-24,0 -117,-52 -147,-82c-17,-19 -40,-58 -50,-87c-18,-52 -21,-55 -68,-69c-27,-7 -54,-18 -60,-23c-21,-17 -22,3 -3,58c10,31 19,73 19,94c0,36 -36,129 -50,129c-18,0 -49,-53 -71,-118l-24,-73l23,-39c41,-71 34,-89 -78,-208c-55,-58 -116,-116 -136,-129c-37,-26 -241,-96 -310,-108c-45,-7 -51,-3 -84,52c-11,18 -37,44 -60,58c-22,14 -40,28 -40,32c0,3 7,30 16,59c17,51 16,52 -5,83c-23,33 -77,66 -84,53c-17,-28 -16,-85 2,-131l19,-51l-24,0c-15,0 -41,17 -69,45c-49,48 -93,63 -138,46c-15,-6 -27,-18 -27,-27c0,-27 53,-70 95,-78c40,-8 65,-22 65,-37c0,-4 -25,-15 -55,-24c-62,-17 -98,-59 -93,-105c3,-21 9,-25 41,-28c46,-4 94,23 137,79c29,36 36,39 79,39c53,0 84,-23 96,-71c6,-24 -2,-32 -84,-93c-94,-71 -103,-74 -316,-125c-102,-25 -155,-52 -204,-106c-89,-98 -42,81 73,280c19,33 52,108 73,168c57,162 97,202 240,238c39,10 97,32 129,49l57,30l21,-37c25,-43 65,-62 139,-62c32,-1 47,3 47,12c0,25 -59,106 -94,129c-20,13 -36,26 -36,31c0,8 89,67 101,67c4,0 10,-13 14,-30c7,-33 53,-77 91,-86c25,-7 94,3 94,13c0,3 -30,37 -67,76c-36,39 -61,73 -55,75c6,2 42,-11 81,-27c97,-43 119,-41 170,14c22,24 41,51 41,59c0,15 -87,56 -119,56c-11,0 -45,-11 -75,-25c-94,-43 -119,-32 -85,38l22,45l-21,40l-21,40l35,32c19,17 34,36 32,42c-2,6 -24,17 -49,23c-24,7 -58,18 -75,25c-41,18 -72,8 -126,-40c-43,-38 -68,-50 -68,-32c1,46 23,189 32,199c8,9 24,12 58,7c41,-5 56,-2 101,22c66,36 89,73 89,142c0,28 -3,52 -7,52c-14,-1 -143,-69 -170,-90c-14,-11 -30,-20 -36,-20c-19,0 1,81 29,117c18,24 28,48 27,69c-1,40 -73,179 -92,179c-8,0 -19,-15 -23,-33c-5,-18 -22,-54 -38,-80c-16,-26 -32,-66 -36,-89c-5,-35 -2,-47 19,-75c35,-45 49,-86 42,-120c-9,-39 -27,-35 -50,10c-38,73 -51,82 -127,82c-56,0 -68,-3 -68,-16c0,-32 44,-76 109,-109c89,-44 104,-68 95,-145c-5,-50 -10,-60 -25,-60c-16,0 -19,8 -19,54c0,80 -39,117 -147,140c-31,7 -31,7 -23,-26c14,-63 38,-104 89,-158c42,-44 51,-59 51,-89c0,-48 -37,-124 -94,-192c-25,-31 -59,-87 -75,-125c-41,-99 -53,-124 -61,-124c-17,0 -33,64 -38,153c-4,88 -3,101 16,126c24,33 52,112 52,147c0,26 -33,98 -49,109c-6,3 -13,-11 -17,-32c-9,-48 -41,-123 -52,-123c-5,0 -22,30 -37,67c-28,65 -28,67 -13,110c30,82 -12,170 -105,218c-31,16 -58,27 -62,24c-5,-6 2,-46 27,-143c5,-21 12,-45 15,-53c10,-26 -68,21 -117,71c-39,41 -49,46 -87,46c-50,0 -192,-65 -176,-81c5,-5 27,-19 49,-30c21,-12 51,-28 66,-35c22,-13 36,-13 95,0c46,9 72,11 81,4c20,-17 14,-27 -23,-42c-41,-17 -75,-68 -75,-113l0,-32l43,24c32,18 61,24 126,27l85,3l23,-34c24,-35 31,-81 12,-81c-6,0 -31,14 -56,31c-39,27 -51,31 -95,27c-50,-5 -101,-33 -106,-59c-5,-25 87,-51 173,-50c69,1 78,-2 106,-27c30,-26 32,-33 37,-117c11,-181 7,-247 -16,-320c-32,-102 -36,-106 -69,-73l-27,28l29,30c25,26 29,38 29,85c-1,36 -8,64 -21,86l-20,31l-27,-58c-15,-33 -30,-72 -33,-87c-4,-21 -11,-27 -27,-25c-34,5 -34,66 0,119c35,55 30,116 -12,161c-26,26 -73,58 -88,58c-3,0 -7,-41 -8,-90l-3,-90l-40,21c-22,11 -56,36 -75,55c-32,31 -41,34 -90,33c-66,-1 -142,-19 -147,-36c-3,-6 11,-19 29,-29c18,-9 58,-36 90,-59l56,-42l-39,-35c-21,-19 -39,-44 -39,-56c0,-18 3,-19 41,-9c29,7 55,7 91,-2c27,-6 67,-11 89,-11c48,0 79,-15 79,-36c0,-13 -7,-15 -32,-10c-18,4 -56,9 -83,12c-50,6 -51,5 -93,-40c-23,-25 -42,-50 -42,-56c0,-17 47,-30 110,-30c45,0 71,7 115,30c71,37 89,37 126,1c48,-48 39,-116 -26,-195c-43,-53 -65,-104 -65,-152c0,-98 -87,-304 -129,-304c-40,0 -56,51 -22,70c29,15 61,73 61,110c0,30 -45,109 -62,110c-4,0 -17,-19 -29,-42c-16,-31 -20,-52 -15,-84c9,-65 -23,-67 -39,-2c-10,38 -47,69 -94,75c-71,10 -76,0 -31,-60c22,-29 54,-63 70,-75c42,-31 37,-42 -17,-41c-67,1 -98,-14 -128,-61c-42,-67 -43,-74 -9,-66c16,4 59,12 96,19c37,7 76,21 88,32c19,17 21,17 40,0c47,-43 32,-81 -75,-183c-45,-44 -76,-84 -97,-128c-17,-35 -35,-67 -40,-70c-5,-3 -26,10 -47,29c-33,30 -49,36 -106,42c-98,11 -131,55 -40,55c32,0 51,7 73,25c31,26 64,84 55,98c-7,12 -132,-2 -164,-19c-14,-7 -40,-29 -57,-48c-28,-32 -34,-35 -57,-26c-15,6 -60,10 -101,10c-41,0 -74,3 -74,8c0,4 30,36 66,71c36,36 84,92 106,125c23,34 52,73 66,88l24,26l41,-29c60,-43 109,-41 156,9c20,21 44,52 53,69l17,30l-67,0c-37,0 -81,1 -97,3c-17,1 -40,0 -53,-4c-30,-10 -28,6 7,57c16,24 36,59 44,80c18,43 24,44 78,17c69,-36 153,0 185,77c27,63 22,70 -48,65c-35,-2 -80,-13 -102,-23c-21,-11 -41,-18 -43,-15c-3,3 1,35 8,71c10,52 23,79 56,122c28,37 43,65 43,85c0,31 -37,128 -49,128c-13,0 -58,-54 -91,-107l-31,-52l20,-47c24,-53 26,-91 9,-129c-18,-40 -38,-31 -38,18c0,78 -53,117 -159,117c-68,0 -79,-14 -38,-47c12,-10 33,-36 46,-58c13,-22 43,-59 67,-81c53,-50 56,-77 17,-155c-35,-68 -63,-78 -63,-21c0,69 -79,152 -160,168c-31,7 -32,6 -24,-17c5,-13 9,-42 9,-64c0,-39 -1,-40 -36,-43c-55,-5 -84,-41 -85,-105c-2,-78 -2,-81 -25,-106c-24,-26 -38,-16 -39,29c-1,54 -58,110 -112,110c-16,0 -28,-2 -28,-5c0,-17 48,-127 71,-164c34,-53 35,-64 9,-106c-15,-25 -22,-58 -27,-132l-6,-98l-107,-105c-87,-85 -114,-119 -144,-180c-20,-41 -50,-92 -66,-112c-28,-35 -129,-94 -149,-86c-5,1 -1,28 9,61c10,31 23,112 30,180c6,67 17,157 25,200c13,74 17,82 68,136c65,68 86,106 94,170c5,46 8,49 43,60c56,17 73,41 73,106c0,31 -3,58 -6,62c-6,5 -32,-10 -105,-63c-29,-21 -34,-15 -39,43c-4,46 -3,49 29,63c49,22 63,60 50,133c-6,33 -13,62 -16,64c-12,12 -82,-81 -105,-141c-12,-29 -12,-29 -31,-10c-11,11 -24,41 -29,68c-5,29 -18,57 -32,70c-24,23 -136,62 -146,52c-3,-3 6,-19 21,-36c14,-17 26,-38 26,-45c0,-30 24,-64 52,-76c36,-15 58,-36 58,-54c0,-11 -6,-12 -26,-5c-37,14 -106,12 -128,-5c-19,-14 -19,-15 -1,-35c23,-25 75,-40 141,-40c40,0 55,-5 72,-23c12,-13 22,-33 22,-45c0,-21 -1,-21 -34,-6c-23,11 -45,14 -69,10c-66,-12 -62,-27 25,-85c44,-29 82,-60 85,-68c10,-26 -11,-66 -46,-90c-43,-29 -51,-29 -51,0c0,13 -7,47 -16,77c-13,43 -31,69 -93,134c-89,93 -110,127 -118,195c-6,56 13,183 34,226c21,40 85,125 95,125c5,0 17,-20 28,-44c20,-49 43,-67 107,-90c37,-13 42,-13 47,1c10,26 -22,107 -61,152c-19,23 -34,43 -32,45c2,2 14,9 27,15c29,16 41,2 72,-81c23,-63 51,-89 115,-107c22,-6 43,-11 48,-11c16,0 5,51 -23,104c-17,31 -27,56 -24,56c4,0 29,-13 56,-30c70,-43 137,-36 196,20c28,26 21,38 -47,78c-38,22 -55,26 -110,24c-77,-2 -171,15 -171,31c0,6 20,30 45,53c28,25 45,49 45,64c0,23 -39,100 -50,100c-4,0 -28,-22 -54,-49c-30,-33 -50,-66 -58,-96c-8,-31 -24,-57 -46,-76c-37,-33 -79,-40 -67,-11c28,69 28,69 -10,132c-20,34 -42,59 -47,58c-6,-2 -19,-26 -30,-53c-21,-55 -20,-110 2,-186l13,-46l-43,-52c-49,-58 -75,-67 -66,-23c3,15 13,76 21,136c20,141 32,189 66,257c63,127 202,273 339,356c48,29 173,61 274,69c77,6 88,4 141,-20l58,-26l-47,-50c-46,-49 -47,-50 -40,-102c4,-29 10,-57 14,-61c10,-11 77,69 92,110c14,37 41,44 58,14c18,-34 11,-58 -22,-85c-18,-15 -39,-31 -45,-37c-18,-14 -16,-75 3,-140c21,-70 22,-71 45,-58c34,18 60,70 54,107c-7,40 10,68 31,51c7,-6 18,-35 25,-65c12,-51 16,-58 76,-99c35,-25 70,-45 77,-45c17,0 26,22 26,65c0,54 -18,81 -72,106c-55,26 -81,56 -76,89c3,20 4,20 40,-5c27,-18 50,-25 85,-25c79,0 83,11 25,68c-45,44 -57,50 -103,54c-45,5 -58,11 -86,42c-33,35 -45,72 -20,64c123,-44 111,-43 152,-18c38,23 75,58 75,71c0,4 -18,14 -40,23c-50,20 -131,20 -185,1c-56,-21 -86,-19 -136,9c-24,13 -62,27 -84,30c-65,11 -75,16 -75,37c0,18 5,19 79,13c76,-6 80,-6 124,24c24,17 57,46 72,64c24,29 26,33 11,36c-10,2 -50,-4 -89,-13c-111,-25 -107,-25 -107,-5c0,19 71,89 93,91c6,1 42,0 78,-1c51,-1 76,3 108,20c52,26 60,45 32,73c-17,18 -31,21 -86,19c-35,-1 -67,3 -70,9c-6,9 22,40 113,121c51,46 67,96 47,143c-39,95 -140,11 -160,-132c-5,-38 -16,-62 -42,-92c-19,-23 -38,-41 -43,-41c-4,0 -13,28 -19,61c-6,34 -18,73 -27,87l-17,26l-22,-28c-39,-48 -45,-87 -24,-148c10,-29 18,-66 19,-81c0,-36 -26,-87 -45,-87c-18,0 -18,4 -6,48c13,44 -1,74 -50,108c-44,30 -53,27 -69,-22c-13,-39 -9,-64 22,-140c36,-88 0,-147 -112,-188c-156,-56 -217,-92 -313,-183c-83,-79 -92,-86 -95,-64c-7,45 8,71 59,102c61,38 79,71 86,160c7,82 -2,87 -49,28c-66,-82 -86,-104 -92,-98c-10,10 -26,108 -20,124c4,8 14,15 24,15c31,0 80,49 79,78c-1,40 -24,97 -39,97c-7,0 -24,-22 -38,-48c-35,-63 -57,-60 -57,8c0,45 3,51 30,64c64,29 105,92 105,158c0,53 -9,61 -47,51c-29,-8 -51,-29 -112,-108l-19,-25l-17,40c-15,36 -19,75 -15,143c1,13 -11,40 -28,60c-23,29 -43,41 -95,56c-37,11 -69,17 -71,15c-8,-8 20,-104 43,-153c13,-25 39,-56 61,-71c24,-16 40,-36 40,-47c0,-19 0,-19 -32,0c-38,23 -104,45 -118,40c-12,-4 23,-72 54,-107c11,-13 45,-39 74,-58c50,-32 92,-83 92,-110c0,-22 -20,-14 -54,22c-30,31 -39,35 -85,35c-39,0 -51,-4 -51,-15c0,-27 64,-86 130,-118c61,-30 92,-59 78,-72c-3,-4 -20,1 -36,9c-32,17 -142,34 -142,22c0,-23 46,-90 81,-118c103,-83 94,-70 93,-145c-1,-78 -21,-146 -76,-255c-27,-56 -41,-100 -49,-155c-5,-43 -13,-87 -16,-97c-5,-18 -7,-18 -25,5c-38,47 -65,95 -78,134c-7,22 -28,69 -46,104c-19,35 -34,69 -34,75c0,6 16,31 35,55c19,24 35,55 35,69c0,14 -16,54 -36,90l-37,66l-18,-23c-12,-14 -19,-39 -19,-65c0,-64 -15,-77 -35,-30c-28,65 -29,97 -6,142c26,51 29,146 5,180c-8,12 -20,19 -26,16c-23,-14 -48,-91 -48,-147l0,-59l-32,19c-31,18 -70,68 -110,142c-14,26 -23,31 -53,31c-44,0 -142,-27 -151,-41c-15,-24 50,-70 136,-95c87,-27 150,-64 150,-90c0,-19 -17,-18 -48,4c-15,11 -38,22 -52,25c-26,7 -107,-10 -115,-23c-10,-16 105,-77 168,-90c34,-6 74,-18 89,-26c31,-16 78,-80 78,-106c0,-15 -6,-14 -54,8c-50,23 -58,24 -101,13c-42,-11 -49,-10 -57,5c-5,9 -40,32 -78,51c-38,19 -71,39 -75,45c-12,19 -35,11 -35,-12c0,-59 21,-99 65,-126c25,-15 45,-32 45,-38c0,-7 -37,-14 -97,-18l-96,-7l-47,51c-31,34 -54,50 -71,50c-25,0 -110,-37 -143,-62c-17,-13 -14,-16 42,-41c33,-15 71,-27 85,-27c20,0 24,-4 20,-20c-4,-13 -17,-21 -42,-25c-117,-18 -151,-47 -151,-126c0,-27 4,-49 8,-49c32,0 105,36 123,61c11,16 30,34 41,40c23,12 23,7 2,-88c-6,-29 -4,-33 14,-33c29,0 83,58 122,131c36,68 69,89 140,89c52,0 52,-20 1,-41c-28,-12 -46,-29 -60,-58c-23,-43 -27,-71 -11,-71c22,0 119,49 151,77c100,88 167,71 341,-88c84,-76 117,-123 148,-214c20,-57 27,-155 12,-155c-4,0 -31,18 -61,40c-29,22 -57,40 -62,40c-6,0 -9,34 -7,79c3,72 1,82 -21,105c-24,26 -76,46 -117,46c-19,0 -20,-5 -16,-62c4,-46 11,-71 28,-94c24,-31 31,-54 17,-54c-10,0 -114,43 -130,53c-7,5 -13,25 -13,46c0,45 -31,96 -79,128c-27,18 -48,23 -102,23c-38,0 -69,-3 -69,-7c0,-20 86,-115 122,-135c24,-13 43,-30 43,-38c0,-13 -17,-14 -105,-12c-97,3 -108,2 -140,-20c-48,-32 -70,-80 -70,-150c0,-55 1,-58 24,-58c18,0 45,23 101,84c80,88 101,104 119,86c6,-6 3,-17 -12,-33c-21,-22 -52,-86 -52,-107c0,-31 102,7 203,76c53,37 63,39 101,24c35,-13 33,-30 -3,-30c-57,0 -101,-62 -101,-142c0,-24 4,-28 28,-28c64,0 101,20 142,75c54,74 93,82 148,31c35,-31 49,-63 60,-137c14,-92 42,-141 132,-230c91,-91 119,-145 129,-247c7,-74 6,-79 -42,-236c-16,-54 -37,-59 -37,-9c0,64 -35,110 -124,164c-44,26 -83,46 -87,44c-17,-11 34,-186 61,-210c23,-20 27,-55 7,-55c-18,0 -109,-28 -126,-39c-11,-7 -10,-13 4,-35c32,-48 71,-63 184,-69c57,-4 106,-9 110,-12c18,-19 2,-89 -41,-176c-56,-111 -82,-236 -71,-339c6,-60 5,-62 -14,-52c-11,6 -25,18 -32,26c-24,29 -139,86 -203,101c-101,23 -200,63 -228,91l-25,25l24,17c13,9 41,33 63,53c38,36 38,38 38,112c0,51 -4,76 -13,80c-18,7 -105,-76 -122,-117c-15,-34 -28,-45 -38,-28c-3,4 6,50 20,102c35,138 18,191 -75,231c-65,28 -72,22 -72,-60c0,-65 2,-72 40,-122c35,-47 40,-60 40,-106c0,-29 -2,-53 -4,-53c-2,0 -18,14 -36,30c-27,25 -40,30 -82,30c-27,0 -58,-5 -69,-10c-19,-11 -19,-12 -2,-41c32,-54 97,-106 141,-114c32,-5 46,-14 61,-39c11,-18 29,-41 41,-51c31,-28 24,-35 -36,-35c-51,0 -63,5 -138,54c-86,57 -95,69 -116,156c-6,25 -14,54 -17,66c-3,16 5,29 36,54c59,46 74,80 69,154c-4,67 -37,130 -66,124c-8,-2 -29,-25 -46,-53c-28,-45 -31,-57 -28,-117c1,-38 -2,-68 -7,-68c-11,0 -91,110 -91,126c0,6 20,29 45,52c36,33 45,47 45,75c0,41 -24,114 -48,145l-18,23l-47,-78c-38,-64 -47,-87 -47,-126c0,-29 -4,-47 -11,-47c-24,0 -157,70 -163,86c-9,25 3,40 156,189l143,140l3,-38c2,-26 13,-47 36,-70c31,-31 99,-61 110,-49c3,3 6,31 6,63c0,56 -1,59 -45,95c-25,20 -45,40 -45,45c0,13 37,20 75,13l35,-6l0,-63c0,-61 1,-63 44,-103c42,-39 104,-77 112,-70c6,7 -34,125 -55,159c-25,41 -26,49 -5,49c30,0 75,-42 111,-106c33,-56 43,-66 78,-75c40,-11 139,-8 152,4c11,11 -18,57 -72,113c-42,44 -58,54 -96,59c-94,14 -174,85 -95,85c46,0 85,34 96,83c8,38 7,39 -27,54c-65,27 -114,5 -158,-73c-14,-25 -26,-33 -59,-37c-23,-3 -60,-9 -83,-13c-52,-8 -53,0 -13,51c34,42 37,75 16,145c-16,55 -36,61 -76,22c-37,-38 -46,-75 -31,-130c10,-40 9,-49 -15,-103c-26,-58 -81,-119 -108,-119c-9,0 -15,27 -19,98c-6,84 -13,125 -43,229c-5,18 3,28 44,58c52,37 72,73 72,129c-1,34 -11,51 -54,84c-47,36 -56,30 -56,-37c0,-107 -25,-121 -65,-38l-26,52l51,53c56,59 62,84 34,165c-18,52 -31,57 -89,33c-41,-18 -52,-50 -38,-112c12,-50 6,-58 -30,-45c-22,9 -47,35 -119,124c-20,24 -33,29 -83,34c-59,5 -145,-10 -145,-26c0,-12 111,-106 148,-125l33,-17l-48,-32c-26,-18 -48,-38 -48,-46c0,-24 102,-53 171,-48c78,6 115,-10 138,-58c10,-20 16,-38 14,-41c-3,-2 -20,7 -38,21c-62,46 -145,30 -222,-42c-23,-22 -32,-25 -72,-19c-35,6 -50,14 -72,43l-27,35l-24,-76c-14,-43 -29,-76 -37,-76c-7,0 -18,23 -26,55l-13,54l36,41c34,36 37,45 37,99c0,93 -8,121 -37,121c-13,0 -37,-7 -52,-14c-26,-14 -29,-21 -35,-87c-3,-40 -9,-75 -12,-78c-3,-3 -14,5 -25,18c-14,17 -19,39 -19,83c0,33 -4,67 -9,77c-9,17 -152,121 -166,121c-11,0 7,-174 21,-201c7,-15 34,-39 59,-53c30,-18 45,-34 45,-47c0,-16 -4,-19 -17,-14c-43,17 -70,22 -101,17c-46,-6 -42,-34 12,-72c34,-23 56,-30 91,-30c31,0 57,-7 75,-20c33,-23 64,-85 55,-108c-5,-14 -10,-11 -31,16c-29,37 -72,43 -120,17c-28,-15 -30,-15 -60,20c-45,51 -131,228 -150,310c-27,111 -33,122 -107,195c-68,65 -70,70 -75,123c-9,115 49,216 182,316c50,37 105,75 122,84c46,24 107,31 134,17c22,-12 22,-12 -24,-53c-48,-43 -52,-55 -48,-140l2,-39l53,38c28,20 63,48 75,62c19,20 26,23 33,11c20,-32 8,-48 -55,-70c-57,-20 -86,-69 -86,-141c0,-33 4,-58 10,-58c6,0 30,18 54,40c66,61 86,48 46,-30c-11,-22 -20,-49 -20,-61c0,-29 35,-101 59,-123c17,-16 20,-13 60,45c46,70 50,93 21,149c-21,41 -26,80 -11,80c5,0 25,-16 44,-35c30,-30 42,-35 80,-35c28,0 52,6 61,16c15,14 14,19 -14,54c-44,55 -88,90 -114,90c-12,0 -30,6 -39,13c-18,13 -45,102 -34,113c3,4 23,-6 43,-21c28,-21 46,-27 81,-27c52,1 153,44 153,66c0,8 -29,30 -65,50c-75,41 -143,48 -198,20c-31,-17 -31,-17 -62,19c-33,40 -69,57 -118,57l-31,0l20,21c12,11 61,34 110,50c111,38 175,81 265,181l71,78l65,0c79,0 119,17 176,77c63,66 64,71 21,89c-48,20 -85,13 -135,-27c-35,-27 -39,-29 -39,-11c0,21 49,87 80,109c11,8 40,20 66,28c26,7 57,24 70,36c26,25 58,101 69,167l7,42l-37,0c-49,0 -91,-24 -111,-63c-19,-37 -44,-67 -56,-67c-13,0 -10,28 7,61c25,47 35,122 24,165c-11,41 -116,154 -142,154c-10,0 -16,-22 -20,-86zm-3126,-366c39,-29 41,-33 22,-36c-12,-2 -37,5 -55,15c-18,10 -51,20 -72,23c-63,8 -58,30 7,30c45,0 61,-5 98,-32zm2854,-78c14,-5 24,-20 28,-39c5,-22 20,-39 61,-65c80,-51 81,-72 8,-172c-35,-48 -141,-107 -278,-155c-104,-36 -162,-71 -224,-133c-24,-26 -48,-46 -52,-46c-12,0 -10,138 3,226c9,59 19,85 43,117c48,62 60,66 94,34c23,-22 37,-27 78,-27c50,1 155,36 161,55c5,15 -119,75 -156,75c-34,0 -39,14 -14,42c22,25 29,23 64,-17c28,-32 36,-35 84,-35c64,0 105,14 105,35c0,9 -22,38 -50,66c-27,27 -50,52 -50,56c0,6 62,-5 95,-17zm-2378,-512c12,-13 32,-46 47,-75l26,-51l-43,-25c-23,-14 -51,-34 -61,-46c-11,-12 -22,-21 -25,-21c-4,0 -20,24 -36,53l-28,54l26,35c15,19 27,46 27,60c0,45 33,52 67,16zm-283,-51c62,-35 57,-47 -14,-30c-54,12 -64,12 -96,-3c-19,-9 -43,-27 -54,-41c-21,-28 -55,-111 -48,-118c3,-3 25,4 49,15c28,12 66,20 104,20c41,0 72,6 98,20c20,11 46,20 56,20c29,0 51,-38 51,-87c0,-51 -10,-54 -78,-18c-41,21 -52,23 -91,14c-77,-17 -155,-88 -121,-109c13,-8 121,-23 160,-22c14,0 48,4 76,7l51,7l27,-56c16,-33 46,-72 72,-93c42,-36 57,-63 33,-63c-34,0 -141,49 -190,86c-51,39 -142,75 -156,61c-3,-3 5,-22 17,-41c29,-48 40,-48 -255,10l-120,23l-43,48c-65,72 -68,81 -35,93c81,28 116,75 129,168c5,43 4,52 -9,52c-35,0 -105,-40 -134,-76c-17,-22 -34,-36 -38,-33c-3,4 -1,27 5,52c11,43 15,46 76,72c54,23 73,26 119,21c30,-3 79,-9 108,-12c43,-5 61,-2 93,14c51,28 109,27 158,-1zm6986,-17c34,0 36,-3 60,-61c22,-56 23,-64 9,-87c-21,-38 -96,-89 -110,-75c-8,8 -4,16 16,29c24,16 27,22 22,62c-5,42 -31,92 -53,99c-5,2 -26,-31 -47,-72c-28,-57 -37,-88 -37,-127c0,-47 -3,-54 -40,-89c-39,-37 -116,-69 -167,-69c-29,0 -29,3 2,85c37,97 52,123 105,179c26,28 55,67 65,86c24,48 32,52 90,46c28,-3 66,-6 85,-6zm-6373,-187c53,-36 86,-66 90,-80c13,-56 -26,-38 -121,52c-59,56 -79,85 -60,85c4,0 45,-26 91,-57zm-106,-91c111,-115 149,-174 173,-266c18,-67 33,-236 21,-236c-17,0 -200,148 -241,195c-252,289 -247,278 -164,320c35,18 56,36 67,60c9,19 22,35 29,35c6,0 58,-48 115,-108zm3509,26c33,-10 51,-23 72,-53c50,-72 31,-86 -38,-29c-24,19 -82,53 -129,75c-89,42 -100,51 -91,75c5,12 18,8 73,-20c38,-19 88,-40 113,-48zm-2485,-163c145,-38 316,-153 446,-299c71,-80 80,-95 124,-214c63,-168 82,-203 155,-292c69,-85 98,-135 141,-252c36,-99 55,-251 42,-353c-8,-67 -9,-70 -35,-73c-33,-4 -36,8 -8,33c26,24 26,73 -2,130c-22,45 -32,53 -43,35c-12,-19 -25,-10 -25,18c0,44 -20,102 -35,102c-8,0 -31,-20 -52,-45c-55,-66 -67,-61 -59,24c8,79 -1,107 -56,160c-22,22 -40,31 -58,29c-23,-3 -26,-8 -33,-77c-10,-94 -6,-112 44,-166c28,-31 42,-56 46,-82c4,-37 3,-39 -40,-61c-68,-36 -84,-58 -91,-130l-7,-64l40,7c43,7 47,4 31,-24c-9,-17 -2,-19 78,-25c66,-5 99,-3 137,9c66,20 175,11 205,-17c11,-11 38,-56 59,-101c21,-45 64,-113 95,-152c31,-38 56,-75 56,-81c0,-20 -169,-5 -206,17c-17,11 -48,19 -68,19c-30,0 -45,-8 -81,-45c-38,-38 -45,-50 -45,-85c0,-22 2,-40 5,-40c3,0 24,9 47,21c29,15 47,18 60,12c18,-8 11,-16 -56,-72c-81,-68 -103,-107 -92,-165c10,-52 103,-133 126,-110c6,6 13,58 17,117c6,103 7,109 35,132c39,33 52,23 26,-20c-26,-45 -18,-78 30,-127c51,-54 76,-51 92,10c9,37 9,64 -1,125c-16,97 -9,111 52,115c42,3 47,0 78,-38c17,-22 39,-57 48,-77c21,-52 27,-173 13,-263c-6,-41 -14,-100 -17,-130l-5,-55l-92,3c-50,1 -108,8 -129,14c-28,9 -40,9 -49,0c-17,-17 -138,-15 -189,4c-26,9 -57,13 -76,9c-22,-4 -45,0 -70,13c-21,11 -72,29 -113,42c-161,48 -203,90 -282,282c-18,45 -22,82 -28,233c-8,207 -22,257 -102,380c-51,78 -100,172 -116,225c-17,53 -33,178 -26,206c6,25 24,34 24,11c0,-18 47,-85 68,-96c14,-7 25,-4 46,13l28,22l-37,87c-31,71 -35,90 -25,102c7,8 21,15 31,15c15,0 19,-7 19,-32c1,-42 19,-74 56,-99c47,-31 64,-26 64,21c0,45 8,49 35,20c35,-38 165,-52 165,-17c0,21 -59,115 -82,131c-12,9 -43,16 -68,16c-84,0 -92,31 -19,71c24,13 50,36 58,50c13,24 13,29 -9,59c-20,28 -27,31 -58,27c-53,-9 -80,-32 -99,-86c-15,-43 -22,-50 -49,-56c-18,-3 -48,-17 -68,-30c-20,-14 -41,-25 -46,-25c-5,0 -6,22 -3,49c7,61 -14,99 -78,142l-44,29l-6,-28c-12,-53 -2,-196 16,-231c11,-23 15,-44 10,-65c-10,-45 -10,-96 -1,-140c8,-36 8,-38 -12,-27c-11,6 -46,49 -76,96c-31,47 -74,104 -96,128c-47,52 -66,100 -104,269c-9,38 16,60 58,52c39,-7 199,51 193,69c-1,7 -20,20 -40,31c-34,16 -44,17 -102,5c-36,-7 -68,-10 -71,-6c-4,4 -2,18 4,32c10,22 15,24 60,18c44,-5 55,-2 121,38l71,42l-26,28c-43,45 -79,55 -121,35c-19,-9 -38,-15 -41,-12c-2,3 17,29 43,58l47,53l-5,63c-3,35 -7,66 -11,69c-3,3 -20,0 -37,-7c-30,-13 -33,-12 -53,16c-11,16 -33,40 -48,53c-33,30 -24,55 27,77c48,20 53,18 60,-20c8,-38 96,-133 114,-122c6,4 15,25 21,48c11,39 10,43 -24,93c-20,28 -36,54 -36,58c0,11 62,25 110,26c25,1 72,-6 105,-14zm4606,-42l24,-27l-24,15c-14,9 -27,21 -29,27c-6,19 3,14 29,-15zm-4995,-278c2,-11 5,-49 7,-85c2,-54 -1,-65 -16,-68c-18,-4 -22,3 -32,60c-5,31 -12,40 -45,54c-39,18 -40,19 -40,70c0,87 5,90 66,37c30,-26 57,-57 60,-68zm-200,-97c9,-18 40,-56 70,-84c35,-32 56,-62 60,-82c9,-46 -17,-52 -60,-14c-43,37 -85,47 -132,32c-47,-16 -54,-6 -54,76c0,64 13,87 55,97c39,9 45,7 61,-25zm4431,-261c42,-62 51,-109 30,-153l-16,-33l-41,14c-26,9 -57,12 -86,8c-36,-5 -44,-3 -44,10c0,8 15,25 34,36c40,25 45,35 53,113c7,73 24,74 70,5zm-2363,14c17,-10 54,-26 81,-36c28,-10 57,-25 67,-32c9,-8 26,-51 38,-96c18,-66 21,-98 17,-167c-3,-47 -11,-98 -17,-115c-6,-16 -44,-64 -83,-105c-40,-42 -84,-92 -99,-111c-21,-29 -35,-37 -72,-42c-25,-4 -64,-16 -87,-27c-53,-27 -50,-52 9,-62c77,-13 77,-17 23,-151c-22,-53 -47,-121 -55,-152c-9,-30 -20,-55 -24,-54c-16,1 -133,191 -152,248c-28,83 -26,134 9,207c23,48 39,67 81,94c52,33 53,34 82,17c19,-11 52,-17 89,-17c59,0 61,1 110,51c27,28 49,54 49,59c0,15 -67,23 -131,16c-67,-8 -69,-5 -39,54c11,22 20,49 20,60c0,29 21,34 65,16c56,-24 71,-20 126,31l50,46l-53,29c-29,16 -57,33 -62,38c-6,6 -22,2 -43,-11c-46,-29 -57,-21 -33,23c11,21 20,49 20,63c0,38 -35,99 -64,113c-14,6 -26,16 -26,22c0,17 71,11 104,-9zm-2083,-36c24,-14 56,-25 71,-25c18,0 33,-8 42,-22c14,-23 33,-178 22,-178c-10,0 -120,62 -140,79c-10,9 -24,27 -31,41c-15,31 -27,130 -16,130c5,0 29,-11 52,-25zm1902,-17c8,-24 26,-61 41,-82c14,-21 26,-51 25,-65c0,-24 -1,-25 -12,-7c-19,31 -46,56 -60,56c-7,0 -32,-12 -55,-27c-44,-29 -57,-63 -23,-63c30,0 121,-88 121,-116c0,-28 -26,-84 -39,-84c-5,0 -11,19 -14,42c-8,60 -35,90 -98,108c-54,16 -54,16 -57,58c-3,42 -2,43 42,63c63,27 83,52 91,110c4,27 11,49 15,49c4,0 15,-19 23,-42zm-307,-129c19,-11 39,-29 44,-39c15,-28 13,-110 -2,-110c-11,0 -98,146 -98,164c0,12 23,6 56,-15zm2840,-67c-4,-11 -33,-45 -66,-76c-63,-61 -74,-63 -128,-30c-19,12 -21,18 -11,35c9,17 17,20 45,15c37,-8 68,6 124,53c38,32 45,33 36,3zm-2652,-183c25,-28 46,-59 46,-70c0,-12 -20,-27 -64,-48c-35,-17 -67,-31 -70,-31c-9,0 -7,50 3,90c5,19 12,52 16,73c3,20 10,37 15,37c4,0 29,-23 54,-51zm2634,-115c21,-6 22,-12 22,-95c0,-64 6,-103 20,-142c34,-91 38,-93 88,-36c53,60 65,111 36,164c-10,19 -15,37 -12,40c14,15 98,-47 98,-72c0,-8 23,-38 51,-68l51,-54l-21,-138c-32,-216 -41,-330 -41,-540c0,-203 -9,-270 -41,-299c-16,-15 -23,-15 -43,-5c-40,22 -52,55 -38,107c17,63 15,98 -9,155c-23,53 -30,57 -49,34c-24,-28 -28,-15 -23,68l5,82l52,46l51,47l4,87c4,116 -5,124 -69,57c-27,-28 -52,-64 -56,-79c-15,-70 -25,-70 -60,-1c-14,28 -42,76 -62,105l-35,54l33,34c32,33 33,35 27,102c-5,71 -43,177 -59,167c-5,-4 -18,-26 -29,-51c-11,-25 -28,-58 -39,-73c-14,-20 -20,-44 -20,-84c0,-31 -3,-56 -7,-56c-13,0 -89,64 -118,98c-36,43 -91,57 -156,41c-27,-7 -51,-10 -55,-7c-18,19 69,119 188,215c97,79 230,120 316,97zm-3148,-264c10,-18 8,-20 -20,-20c-32,0 -38,8 -18,28c17,17 26,15 38,-8zm1003,3c17,-10 3,-24 -62,-58c-129,-68 -130,-97 -5,-103l76,-4l50,53l50,54l34,-39c19,-22 34,-43 34,-47c0,-4 -24,-21 -54,-38c-75,-42 -126,-117 -126,-184c0,-18 5,-19 52,-13c76,10 114,30 144,75c15,23 28,41 29,41c2,0 16,-33 31,-72c32,-88 40,-97 126,-154c37,-25 68,-48 68,-51c0,-16 -83,-113 -97,-113c-8,0 -31,14 -51,31c-31,27 -41,31 -79,26c-58,-6 -193,-88 -193,-117c0,-21 63,-42 109,-36c144,18 151,18 151,7c0,-7 -10,-22 -23,-34c-13,-12 -43,-48 -66,-79c-24,-32 -45,-58 -47,-58c-1,0 -24,18 -49,40c-25,22 -53,40 -61,40c-43,0 -184,-105 -184,-136c0,-20 45,-29 143,-28c69,1 87,-1 87,-13c0,-26 -45,-59 -118,-87c-78,-30 -96,-49 -107,-108c-4,-20 -13,-45 -20,-55c-13,-17 -15,-16 -43,11c-50,47 -66,127 -52,261c25,243 25,254 -6,356c-26,83 -29,109 -29,224c0,123 2,134 33,210c62,153 84,189 122,202c31,11 111,8 133,-4zm1687,-148c70,-62 82,-67 149,-59c57,6 96,-4 113,-30c15,-22 7,-26 -50,-20c-69,8 -102,-8 -122,-57c-17,-39 -6,-49 61,-56c44,-4 66,0 117,21c55,23 66,25 89,14c26,-13 89,-115 78,-126c-3,-3 -32,7 -64,23c-61,29 -88,29 -126,1c-27,-20 -14,-40 55,-88c38,-27 64,-38 89,-38c20,0 47,-7 60,-16c21,-15 22,-22 20,-113c-2,-53 1,-111 5,-128c12,-46 -9,-43 -68,8c-42,38 -46,44 -46,88c0,39 -5,52 -27,73c-44,41 -95,68 -131,68c-28,0 -32,-3 -28,-22c3,-13 8,-40 11,-60c5,-30 15,-44 50,-68c25,-17 45,-34 45,-37c0,-3 -23,-3 -51,0c-33,4 -61,15 -80,32c-24,19 -42,25 -79,25c-44,0 -51,-3 -78,-37c-33,-42 -66,-103 -59,-109c2,-2 18,1 36,7c20,7 61,9 104,6c55,-5 76,-3 91,8c25,19 77,19 102,0c18,-13 17,-14 -19,-15c-53,0 -72,-13 -91,-60c-32,-80 -16,-105 41,-65c21,14 43,25 48,25c6,0 24,14 40,30c24,25 36,30 77,30c36,0 53,-5 71,-22l22,-23l-87,-3l-88,-3l-41,-70c-23,-38 -39,-72 -37,-75c3,-2 34,-7 70,-11c74,-6 105,6 177,68c55,49 83,50 111,4c12,-19 45,-48 74,-65c82,-47 90,-85 45,-219c-11,-30 -19,-80 -19,-112c0,-103 -45,-283 -79,-313c-16,-15 -19,-15 -33,1c-32,37 -48,83 -48,140c-1,78 -14,130 -41,159c-25,27 -86,47 -126,42l-26,-3l27,-32c14,-17 33,-51 41,-75c9,-23 23,-57 32,-75c20,-39 15,-47 -26,-38c-21,4 -41,22 -66,56c-34,47 -37,49 -85,49c-34,0 -67,-9 -105,-27c-86,-42 -80,-51 87,-122l37,-16l-31,-48c-31,-48 -31,-48 -52,-29c-68,62 -97,57 -195,-33c-55,-50 -89,-75 -105,-75c-37,0 -41,17 -13,53c46,61 59,96 52,140c-8,49 -35,99 -50,94c-5,-2 -27,-32 -47,-68c-35,-60 -37,-66 -27,-106c15,-57 6,-88 -30,-103c-16,-6 -44,-23 -62,-36c-18,-13 -35,-21 -39,-19c-4,2 -10,35 -14,72c-4,37 -9,82 -12,100c-6,29 -3,33 22,38c58,13 64,17 64,35c0,10 -18,31 -40,47c-39,28 -40,29 -40,94c0,87 22,120 115,170c39,21 82,52 96,68c40,48 59,41 59,-20c0,-44 4,-55 30,-79c33,-30 93,-55 109,-45c6,3 -1,38 -19,88c-16,45 -27,83 -25,86c13,12 39,-16 62,-65c23,-51 31,-59 87,-84c98,-46 101,-45 100,21c-1,34 -8,65 -19,82c-22,34 -75,67 -108,67c-25,0 -87,43 -87,60c0,5 16,14 35,20c48,16 65,44 65,107c0,61 -8,65 -77,33c-27,-12 -55,-37 -78,-68c-37,-52 -51,-62 -90,-62c-26,0 -35,17 -35,64c0,43 -28,77 -80,101c-37,17 -42,17 -57,2c-15,-14 -14,-20 12,-69c15,-29 42,-69 61,-88c19,-20 34,-40 34,-46c0,-15 -61,-68 -93,-82c-57,-25 -65,-19 -60,48c3,34 -2,107 -11,163c-8,56 -18,131 -22,167c-3,36 -13,92 -22,125c-10,40 -16,103 -16,190c0,192 17,220 194,328c50,30 86,61 107,91c18,25 37,46 42,46c6,0 33,-20 61,-45zm-802,-454c102,-51 172,-108 228,-184c66,-90 80,-123 94,-212c12,-76 7,-386 -7,-421c-3,-7 -27,-29 -54,-49c-40,-29 -49,-40 -49,-66c0,-58 -13,-69 -86,-69c-63,0 -65,1 -59,23c4,12 16,36 26,53c11,17 19,40 19,51c0,20 -36,58 -82,87l-27,18l-13,-44c-7,-24 -13,-78 -13,-120l0,-77l-72,-66c-61,-55 -93,-77 -93,-61c0,2 17,39 37,82c36,77 37,82 36,190l-1,111l56,17c67,21 105,47 143,99c44,61 41,67 -46,67c-68,0 -77,-2 -108,-30c-56,-49 -64,-41 -51,54l7,46l56,1c90,2 102,8 149,84c23,38 42,75 42,82c0,21 -57,15 -110,-12c-57,-29 -60,-30 -60,-11c0,8 15,24 34,35c19,12 37,28 40,37c10,27 7,80 -11,159c-21,97 -35,98 -99,3c-49,-73 -49,-73 -47,-148c3,-93 -9,-117 -38,-78c-23,31 -79,68 -103,68c-37,0 -8,-127 41,-175c27,-26 35,-43 40,-83c6,-58 -2,-102 -20,-102c-6,1 -25,19 -40,42c-27,38 -31,40 -66,35c-46,-6 -121,-53 -121,-76c0,-24 57,-59 120,-73c104,-23 133,-62 132,-179c0,-59 -6,-82 -31,-133c-17,-33 -40,-72 -51,-85c-20,-23 -21,-23 -34,-6c-7,10 -22,34 -32,53c-18,34 -18,35 5,74c43,75 27,132 -51,189c-37,26 -43,28 -51,13c-9,-16 -4,-105 9,-151c11,-39 -23,-27 -36,12c-15,45 -35,55 -113,55c-71,0 -127,-15 -127,-35c0,-19 85,-94 114,-100c87,-18 84,-12 28,-50c-60,-41 -68,-51 -52,-70c18,-22 89,-19 125,5c40,27 78,25 112,-4c25,-21 28,-31 27,-78c-1,-30 -8,-67 -17,-84c-22,-41 -103,-118 -116,-110c-19,12 -87,118 -162,252c-84,151 -114,190 -232,303c-49,47 -95,97 -103,113c-14,27 -14,29 11,38c14,5 37,13 49,16c18,4 36,31 75,110c70,140 77,143 135,51c64,-103 75,-117 90,-117c16,0 36,92 36,165c0,56 -19,84 -73,104l-28,11l26,49c15,26 43,65 63,86l37,38l6,-34c15,-95 109,-219 109,-145c0,13 9,53 20,88c28,89 26,118 -10,150c-38,34 -38,54 3,91c26,25 50,35 117,48c47,9 115,17 153,18c60,1 76,-4 145,-38zm-4430,-168c19,-37 35,-121 28,-149l-8,-29l-18,35c-10,20 -37,46 -61,61c-55,32 -57,57 -9,81c44,22 57,22 68,1zm209,-59c58,-61 61,-69 37,-102c-21,-30 -44,-28 -44,3c0,40 -25,89 -54,108c-14,10 -26,24 -26,32c0,30 36,13 87,-41zm-353,-94c44,-61 46,-80 9,-81c-16,0 -38,-2 -51,-3c-13,-2 -25,1 -29,7c-7,12 17,127 27,127c5,0 24,-23 44,-50zm1943,-269c98,-16 214,-33 258,-39c44,-6 108,-22 142,-36c35,-15 73,-26 85,-26c30,0 52,-15 44,-29c-4,-6 -43,-39 -86,-74c-44,-35 -94,-82 -112,-105c-18,-22 -37,-41 -42,-41c-4,-1 -21,10 -37,24c-42,35 -91,41 -158,20c-61,-19 -121,-72 -139,-122l-10,-30l115,-1c65,-1 123,3 135,9c11,6 26,8 33,5c12,-4 12,-11 0,-47c-10,-28 -13,-58 -9,-89l6,-47l-38,-8c-84,-15 -122,-49 -145,-128c-8,-29 4,-97 17,-97c3,0 26,11 52,24c45,23 101,76 128,122c16,26 29,11 48,-54c11,-38 12,-60 5,-79c-11,-28 0,-48 32,-58c17,-6 19,-15 17,-73c-3,-59 1,-73 26,-117l29,-50l39,80c49,103 53,172 10,214c-15,15 -34,30 -42,33c-12,4 -13,10 -4,24c8,14 26,20 75,24c83,6 93,13 75,48c-8,15 -26,38 -40,51c-29,27 -34,66 -10,75c9,3 36,6 60,6c28,0 47,5 50,14c6,15 -32,130 -54,164c-13,20 -22,22 -93,22c-47,0 -79,4 -79,10c0,19 185,196 219,210c27,11 44,11 95,1c34,-7 74,-9 88,-6c14,4 64,-3 112,-14c48,-12 120,-21 159,-21c155,0 306,-43 394,-112c57,-45 64,-54 59,-77c-3,-14 -9,-49 -12,-78c-6,-47 -8,-50 -25,-40c-30,18 -45,-4 -24,-36c22,-34 10,-38 -55,-16c-30,10 -66,18 -80,18c-27,1 -101,-37 -107,-55c-6,-20 117,-54 195,-54c86,0 117,-13 185,-78c61,-59 62,-75 4,-67c-51,8 -77,-10 -77,-52c0,-15 -17,-51 -37,-80c-32,-47 -37,-61 -35,-105l2,-51l-22,19c-48,39 -98,88 -98,96c0,4 14,29 30,55c24,38 30,58 30,102c0,71 -16,131 -35,131c-8,0 -28,-19 -45,-42c-26,-35 -30,-50 -30,-105c0,-85 -15,-79 -57,22c-38,92 -63,122 -114,135c-33,9 -98,6 -137,-6c-20,-6 13,-56 80,-120c44,-42 63,-54 88,-54c23,0 42,-10 66,-34c19,-19 34,-39 34,-44c0,-12 -42,-2 -79,17c-29,16 -82,17 -111,1c-35,-18 -60,-41 -60,-55c0,-21 152,-56 212,-49c53,6 53,5 126,-51c40,-31 79,-70 88,-87l15,-30l-44,26c-24,15 -59,26 -79,26c-35,0 -119,-37 -125,-55c-1,-6 31,-27 73,-48c54,-27 79,-35 92,-28c9,5 36,12 59,16c38,6 45,4 83,-31c23,-21 56,-65 73,-98c29,-56 32,-69 32,-156c0,-87 -3,-100 -31,-155c-17,-33 -34,-72 -38,-87c-3,-16 -10,-28 -14,-28c-5,0 -24,21 -42,48c-19,26 -51,66 -72,89c-43,48 -46,69 -17,133c22,50 20,74 -15,128c-31,49 -64,78 -109,97c-35,14 -37,14 -37,-2c1,-38 21,-110 42,-150c12,-23 19,-45 15,-49c-9,-9 -72,25 -97,51c-16,17 -17,26 -8,70c17,83 -26,195 -76,195c-20,0 -26,-8 -40,-61l-18,-61l26,-37c14,-20 26,-45 26,-55c0,-20 2,-20 -84,10l-50,18l-48,-27c-60,-34 -78,-34 -129,0c-22,15 -71,34 -107,44c-200,52 -293,79 -338,99c-69,30 -174,63 -357,110c-132,34 -169,47 -218,81c-57,38 -87,73 -72,82c5,2 26,8 48,12c64,11 113,44 135,90c28,58 26,73 -11,77l-31,3l35,45c19,25 37,55 41,68c7,21 5,22 -51,22c-37,0 -67,-6 -79,-15c-51,-39 -45,4 6,45c22,18 47,45 55,61c19,37 19,149 0,195l-15,35l-34,-26c-20,-15 -49,-48 -67,-73c-29,-45 -31,-51 -25,-118c6,-74 -8,-114 -40,-114c-11,0 -13,9 -8,40c8,51 -19,94 -87,139c-65,42 -73,41 -65,-14c4,-25 5,-45 2,-45c-2,0 -20,26 -40,58c-40,66 -80,107 -116,117c-58,17 -74,58 -45,115c19,36 30,38 46,8c6,-13 33,-46 58,-73c25,-28 51,-59 57,-70c5,-10 15,-16 21,-12c19,12 36,96 30,149c-7,56 -25,81 -74,105c-42,19 -42,34 2,77c58,59 122,90 220,108c125,23 150,22 352,-11zm5917,-373c12,-46 7,-98 -11,-105c-16,-6 -120,11 -131,21c-2,3 10,22 27,43c17,21 36,44 42,51c5,6 23,12 38,12c21,0 30,-6 35,-22zm-3081,-112c45,-19 63,-42 92,-119c22,-59 25,-83 25,-190c0,-137 -13,-234 -34,-255c-12,-12 -24,3 -87,105c-127,206 -140,216 -252,197c-65,-11 -70,-30 -22,-78c27,-27 44,-36 69,-36c32,0 86,-32 86,-50c0,-5 -19,-14 -41,-20c-34,-9 -50,-9 -83,4c-23,9 -51,16 -62,16c-46,0 -94,-87 -94,-171l0,-52l36,6c27,5 54,23 104,72c66,63 70,65 119,65c45,0 51,-3 51,-20c0,-11 -6,-22 -12,-24c-7,-2 -32,-9 -54,-15c-26,-7 -48,-21 -59,-37c-16,-25 -40,-162 -30,-172c2,-3 38,12 80,31c56,27 78,43 86,64c24,61 36,78 56,81c33,5 55,-37 54,-104c0,-49 -9,-74 -62,-178c-33,-67 -72,-150 -85,-186c-33,-85 -71,-150 -90,-150c-21,0 -48,49 -89,163c-53,144 -115,271 -178,368c-65,99 -97,168 -97,209c0,16 15,49 35,76c19,27 46,70 60,96c13,26 29,49 35,53c6,3 34,39 64,79c62,84 102,116 144,116c25,0 34,-7 49,-37c21,-45 65,-68 141,-76c66,-8 68,7 12,78c-21,28 -49,62 -60,78l-21,27l41,0c22,0 55,-6 73,-14zm-2421,-108c-15,-15 -99,-13 -118,3c-19,16 -18,32 8,74l21,37l51,-51c40,-40 48,-53 38,-63zm1298,41c69,-69 79,-97 57,-144c-9,-18 -19,-49 -23,-69c-3,-20 -10,-36 -14,-34c-17,7 -170,197 -170,212c0,17 67,96 81,96c5,0 36,-27 69,-61zm-2460,-36c0,-22 -12,-58 -31,-92c-33,-57 -39,-96 -25,-166c10,-51 -5,-36 -29,30c-12,33 -35,66 -67,97c-30,28 -48,54 -45,62c3,7 28,19 55,25c35,9 60,24 87,51c21,22 42,37 47,34c4,-3 8,-21 8,-41zm117,23c16,-14 38,-43 48,-65c10,-23 22,-41 27,-41c5,0 16,13 26,29l16,29l37,-78c29,-61 38,-94 41,-146c4,-78 -5,-86 -56,-55c-18,12 -48,21 -66,21c-38,0 -120,-48 -144,-85c-14,-21 -14,-24 0,-36c29,-24 118,-23 176,1c51,21 56,21 91,7c20,-9 37,-21 37,-27c0,-6 12,-28 26,-50c15,-22 25,-43 22,-45c-2,-3 -28,-9 -56,-15c-29,-5 -77,-21 -107,-35c-31,-14 -69,-25 -86,-25c-41,0 -133,73 -153,123c-27,64 -21,96 29,154c64,73 80,131 55,197c-13,36 -31,147 -24,157c9,15 32,10 61,-15zm4547,2c22,-31 20,-90 -5,-149c-12,-27 -24,-49 -26,-49c-3,0 -18,8 -34,17c-26,16 -31,16 -39,3c-12,-19 -13,-66 -1,-107c5,-17 7,-34 4,-37c-9,-9 -107,63 -128,93c-41,62 -126,70 -196,19l-44,-32l65,-16c36,-9 74,-21 85,-27c11,-6 38,-14 61,-17c47,-8 122,-50 106,-60c-6,-3 -30,-2 -53,3c-35,8 -49,6 -81,-10c-45,-23 -58,-19 -58,21c0,19 -4,28 -12,26c-7,-3 -34,-7 -59,-10l-47,-5l-22,55c-13,32 -37,66 -57,83l-34,28l51,37c49,35 53,36 100,28c56,-10 146,3 169,24c13,12 12,16 -2,32c-29,31 -20,37 52,34c54,-3 77,1 107,17c51,26 79,26 98,-1zm-7232,-87c-1,-46 -7,-91 -12,-101c-5,-9 -40,-27 -77,-39c-37,-12 -78,-32 -90,-43l-22,-20l-30,22c-17,12 -31,27 -31,35c0,7 17,40 39,72c37,55 60,75 107,87c11,4 36,22 54,41c54,55 66,45 62,-54zm6583,-141c36,-52 90,-99 128,-112c28,-10 29,-12 23,-61c-8,-57 -24,-93 -55,-121l-21,-19l0,54c0,49 -4,58 -32,86c-39,36 -77,57 -86,48c-4,-4 -7,-35 -6,-70c1,-53 6,-71 32,-113c38,-58 39,-73 10,-121l-23,-36l-3,45c-5,61 -15,70 -82,70l-58,0l9,-41c13,-55 34,-105 59,-136c22,-28 26,-64 10,-94c-15,-27 -103,-69 -161,-76c-60,-7 -61,-3 -21,124c41,129 61,224 72,346c10,113 29,173 76,234c21,27 32,33 63,33c33,0 42,-5 66,-40zm-4217,4c41,-28 92,-164 92,-243c0,-39 -22,-41 -88,-6c-26,14 -52,25 -58,25c-27,0 -34,27 -18,66c15,37 15,64 -1,142c-7,30 -6,32 22,32c15,0 39,-7 51,-16zm6107,-42c5,-29 17,-48 50,-76c43,-35 78,-106 61,-123c-4,-4 -30,5 -57,21c-38,21 -58,26 -83,22c-33,-6 -76,-32 -76,-45c0,-4 27,-20 59,-36c45,-21 67,-26 92,-21c38,7 69,-15 69,-49c0,-40 -24,-50 -73,-31c-23,9 -66,16 -93,16c-46,0 -56,4 -98,41c-53,47 -65,44 -73,-18c-3,-27 0,-51 12,-73c27,-52 3,-59 -36,-10c-46,57 -87,80 -142,80c-40,0 -54,-6 -99,-43c-29,-24 -52,-47 -51,-51c1,-5 33,-19 70,-31c67,-23 68,-23 105,-4c20,10 49,19 63,19c28,0 75,-40 75,-64c0,-13 -6,-13 -50,0c-36,11 -55,12 -69,4c-20,-10 -51,-48 -51,-62c0,-3 24,-12 54,-19c46,-10 60,-9 99,6c47,18 81,14 91,-10c4,-12 -3,-15 -33,-15c-24,0 -44,-7 -53,-17c-16,-18 -48,-77 -48,-88c0,-3 27,-5 60,-5c59,0 59,0 90,45c34,50 37,51 64,30c38,-29 12,-66 -109,-155c-26,-19 -71,-64 -100,-100c-29,-36 -69,-74 -90,-85l-37,-19l-44,46c-24,26 -44,54 -44,62c0,9 15,19 38,26c35,9 81,44 71,54c-2,2 -31,15 -64,29c-86,36 -80,52 21,52c55,0 86,5 98,14c20,17 50,71 43,78c-3,3 -32,7 -66,10c-53,5 -65,2 -106,-22c-52,-30 -64,-27 -47,10c7,14 12,34 12,45c0,22 -46,80 -64,80c-19,0 -37,-85 -30,-144c5,-41 3,-59 -11,-80c-9,-14 -23,-26 -29,-26c-7,0 -31,27 -55,61l-43,61l22,50c20,46 21,55 9,119c-16,92 -35,93 -78,4c-17,-36 -31,-75 -31,-85c0,-11 -5,-20 -12,-20c-16,0 -88,71 -88,86c0,14 225,184 328,247c107,66 253,128 318,134c44,5 71,16 128,53c112,73 122,74 131,22zm-6976,-18c27,-34 27,-64 1,-64c-10,0 -42,-9 -70,-20l-50,-20l0,46c0,66 13,84 60,84c30,0 43,-6 59,-26zm1512,-4c26,-14 24,-32 -7,-61c-25,-24 -26,-24 -40,-5c-15,21 -19,58 -7,69c9,10 31,9 54,-3zm2231,-17c32,-35 105,-145 117,-175c5,-13 30,-66 55,-117c25,-51 46,-101 46,-110c-1,-9 -15,-25 -33,-36c-19,-12 -43,-43 -61,-78c-23,-46 -33,-57 -53,-57c-18,0 -23,4 -19,18c25,86 17,132 -32,185c-43,45 -57,37 -87,-54c-30,-90 -29,-101 26,-170c22,-28 26,-39 16,-46c-16,-13 -181,-93 -190,-93c-4,0 -5,64 -2,142c5,139 6,142 40,198c68,111 75,135 75,256c0,97 3,115 21,138c26,33 49,33 81,-1zm2460,-44c75,-48 62,-69 -34,-53c-36,6 -38,8 -38,45c0,47 9,48 72,8zm-2664,-68c17,-15 22,-31 22,-66c0,-57 -10,-77 -72,-140c-48,-49 -49,-51 -46,-105c5,-93 -13,-77 -98,86c-16,31 -16,33 8,65c53,70 61,98 54,175l-6,72l58,-33c31,-18 67,-42 80,-54zm1889,-22c30,-19 45,-21 113,-16c104,7 115,-1 111,-79c-4,-84 -23,-124 -58,-124c-15,0 -44,-4 -63,-9c-177,-45 -231,-53 -288,-42c-31,6 -67,8 -79,5c-29,-8 -31,14 -4,45c19,22 21,22 66,6c63,-21 81,-21 146,-2c96,28 100,60 12,98c-29,12 -54,16 -80,12c-35,-6 -37,-5 -24,11c8,10 31,26 52,37c27,13 39,27 44,49c8,36 8,36 52,9zm401,-135c29,-20 28,-44 -2,-44c-40,0 -56,11 -56,36c0,28 24,32 58,8zm1990,-45c17,-31 110,-180 119,-189c2,-2 9,2 14,10c16,25 5,114 -19,147c-12,17 -22,34 -22,38c0,3 19,5 42,3c37,-3 46,-8 71,-46c16,-24 46,-54 67,-68c57,-38 56,-49 -4,-83c-57,-32 -62,-39 -80,-116c-11,-48 -12,-50 -71,-71c-33,-11 -72,-26 -87,-32c-25,-10 -28,-9 -28,7c0,21 26,46 58,56c31,9 49,41 55,98c4,39 2,47 -12,47c-30,0 -135,-66 -165,-104c-28,-34 -31,-44 -29,-97c2,-58 2,-58 -40,-88c-23,-16 -51,-43 -62,-60c-34,-52 -45,-40 -45,50c0,79 1,82 31,108c114,96 125,124 51,129c-36,3 -46,-1 -67,-25c-21,-24 -26,-26 -35,-13c-5,8 -10,29 -10,46c0,25 6,34 28,43c40,17 106,77 98,89c-3,5 -19,15 -35,20c-23,8 -37,7 -65,-9c-46,-24 -46,-24 -46,9c0,78 60,86 146,20c58,-44 144,-98 157,-98c13,0 7,52 -10,87c-10,22 -35,47 -66,66c-49,30 -49,30 -26,43c41,23 68,17 87,-17zm-833,-104c17,0 36,-4 43,-8c25,-16 8,-125 -26,-167l-18,-23l-18,46c-9,25 -35,62 -57,81c-45,41 -45,43 -22,68c13,14 24,17 43,12c14,-4 39,-8 55,-9zm-1120,-25c7,-12 -72,-100 -91,-100c-21,0 -25,15 -13,50c15,41 87,77 104,50zm1590,-9c0,-8 -29,-39 -65,-70c-36,-30 -66,-60 -68,-67c-2,-8 11,-16 32,-20c28,-5 45,-1 82,21c45,27 48,27 61,9c7,-10 13,-28 13,-41c0,-22 -2,-23 -95,-23c-52,0 -95,-3 -95,-6c0,-12 52,-73 75,-88c20,-13 33,-14 71,-6c59,13 64,7 64,-78c0,-44 -6,-75 -20,-102c-25,-50 -50,-53 -50,-7c0,17 -5,39 -10,47c-13,21 -55,-20 -76,-77c-19,-49 -47,-56 -52,-13c-2,14 -10,47 -19,73c-17,53 -65,93 -118,99c-30,3 -30,3 -26,-42c5,-67 23,-102 79,-149c79,-67 95,-137 25,-110c-37,14 -70,11 -113,-11c-26,-13 -59,-20 -96,-20c-47,0 -69,-7 -121,-35c-65,-36 -100,-42 -132,-26c-9,5 -43,48 -75,94c-52,76 -57,86 -45,105c8,12 26,27 42,33c24,10 32,9 54,-8c33,-24 40,-38 48,-86c6,-40 39,-82 55,-72c6,3 13,24 16,46c6,35 10,40 28,35c12,-2 38,-8 60,-12c37,-6 38,-6 31,17c-26,85 -58,119 -110,119c-47,0 -105,17 -105,31c0,22 80,94 154,138c173,103 343,216 386,256c25,23 54,47 65,54c26,14 50,10 50,-8zm-2325,-30c0,-11 -9,-23 -21,-26c-31,-10 -37,4 -10,26c29,24 31,24 31,0zm500,-16c11,-13 11,-39 2,-135c-15,-147 -22,-166 -71,-174c-64,-10 -93,-6 -138,19c-64,38 -60,44 38,60c21,3 47,17 63,34l28,29l-51,26c-63,33 -99,33 -162,1l-50,-26l-42,23c-23,13 -42,28 -42,33c0,12 135,80 190,96c107,30 216,37 235,14zm420,-5c60,-31 62,-44 5,-37c-42,6 -52,4 -82,-18c-28,-22 -63,-71 -63,-90c0,-14 102,-3 145,16c35,16 60,20 94,16c40,-4 53,-12 97,-60c57,-61 74,-102 51,-125c-20,-19 -33,-9 -41,32c-8,39 -41,86 -62,86c-11,0 -14,-15 -14,-61c0,-56 3,-65 35,-100c19,-22 35,-46 35,-54c0,-30 -51,-174 -71,-199c-26,-33 -59,-35 -59,-3c0,13 -13,43 -29,67l-29,44l24,31c14,18 24,45 24,64c0,39 -27,94 -43,88c-7,-2 -25,-29 -40,-60c-40,-79 -67,-74 -67,12c0,38 -28,75 -77,100c-43,22 -46,16 -39,-61c6,-77 4,-73 86,-136c17,-13 35,-33 41,-43c10,-19 8,-20 -49,-13c-57,6 -59,5 -86,-26c-31,-37 -30,-50 5,-67c38,-20 80,-15 120,13c24,16 47,24 66,22c25,-3 28,-8 31,-42c5,-53 -12,-88 -67,-139c-40,-37 -60,-47 -119,-61c-39,-9 -89,-16 -112,-16c-38,0 -42,3 -56,35c-13,32 -13,48 0,138c8,56 19,115 25,130c6,16 11,57 11,92c0,65 28,204 50,246c22,42 111,158 137,179c33,25 73,25 123,0zm-1885,-286c187,-375 198,-414 154,-526c-11,-29 -32,-100 -45,-158c-46,-197 -121,-341 -184,-355c-37,-9 -96,38 -166,132c-33,43 -150,168 -260,278c-111,110 -209,215 -219,234c-11,22 -16,53 -15,85c3,67 1,142 -4,171c-3,18 7,34 44,69c52,48 81,56 114,31c36,-27 56,-69 56,-117c0,-38 6,-54 28,-79l28,-31l47,80c26,43 47,86 47,93c0,27 -32,61 -76,79c-24,11 -44,26 -44,33c0,18 28,43 62,56c25,9 33,6 83,-38c37,-32 68,-50 93,-55c59,-9 92,-7 92,7c-1,23 -70,106 -102,123c-43,22 -43,21 -28,39c7,9 29,15 54,15c24,0 53,8 71,20c56,38 62,32 170,-186zm-1175,106c14,-9 26,-25 28,-34c3,-13 -6,-16 -48,-16c-62,0 -120,25 -120,50c0,33 94,33 140,0zm2225,-12c20,-24 22,-33 17,-125c-4,-79 -1,-106 12,-131c9,-18 22,-32 29,-32c24,0 57,74 57,129c0,66 18,67 53,2c34,-62 34,-92 -3,-156c-25,-44 -28,-56 -20,-84c13,-48 59,-121 74,-121c22,0 36,56 36,141c0,127 34,115 45,-16c12,-150 12,-155 -32,-250c-42,-91 -86,-260 -98,-370c-8,-75 -22,-120 -41,-136c-12,-10 -24,-1 -70,50c-31,33 -62,61 -69,61c-30,0 -34,-113 -5,-170c24,-47 24,-50 5,-50c-9,0 -38,20 -64,45c-61,57 -112,67 -185,35c-40,-17 -52,-18 -62,-8c-7,7 -36,68 -63,135c-28,67 -69,160 -92,205c-85,169 -169,371 -169,408c0,39 34,151 58,187c17,28 73,63 98,63c26,0 74,-50 74,-78c0,-13 -16,-42 -35,-64c-37,-44 -52,-103 -40,-157c8,-35 10,-36 56,-17c60,25 82,54 76,97c-6,44 -1,52 23,39c15,-8 27,-31 43,-80c3,-9 -6,-41 -19,-70c-13,-30 -23,-70 -24,-88c0,-33 27,-92 42,-92c15,0 38,46 38,77c0,38 14,43 31,11c7,-14 10,-46 6,-91c-6,-64 -4,-72 20,-103c14,-19 30,-34 35,-34c11,0 68,123 68,148c0,10 -20,38 -45,62c-42,41 -57,70 -36,70c5,0 25,-7 44,-15c20,-8 55,-15 77,-15c37,0 41,2 38,22c-4,32 -114,107 -155,108c-27,0 -36,6 -53,38c-11,20 -28,48 -37,61l-18,24l30,-8c17,-4 61,-9 99,-12l69,-5l-7,29c-17,68 -93,116 -181,116c-53,-1 -64,3 -96,31c-19,17 -43,36 -53,41c-11,7 -15,16 -10,28c8,21 97,68 174,91c30,9 66,25 80,36c21,17 36,20 89,17c54,-3 67,-7 86,-29zm-2093,-116c34,-14 134,-159 126,-183c-2,-5 -45,31 -97,82c-72,69 -91,93 -80,100c16,10 27,10 51,1zm2450,-111c25,-22 30,-33 22,-41c-14,-14 -39,-3 -68,28c-17,20 -15,42 4,42c6,0 24,-13 42,-29zm869,-33c22,-12 39,-25 39,-29c0,-16 -56,-50 -108,-65c-46,-14 -56,-14 -63,-3c-13,20 0,92 19,107c24,18 70,15 113,-10zm153,-161c19,-23 49,-72 65,-107c17,-36 49,-99 71,-140c63,-117 90,-211 90,-308c0,-45 -2,-82 -5,-82c-3,0 -23,9 -44,20c-22,11 -57,22 -79,26c-33,5 -44,2 -61,-15c-24,-24 -25,-22 -36,44c-15,89 -50,122 -142,131l-60,7l-21,59c-12,33 -20,64 -17,69c9,14 54,-9 103,-51c24,-22 49,-40 53,-40c21,0 7,69 -21,112c-34,51 -60,71 -105,82c-40,10 -115,84 -115,113c0,20 12,26 103,54c56,17 113,40 127,50c38,28 55,23 94,-24zm646,-108c25,-11 77,-24 117,-28c60,-6 79,-12 110,-38c47,-37 57,-69 20,-59c-14,3 -32,8 -40,12c-18,6 -117,-72 -134,-107c-12,-22 -10,-24 15,-30c46,-11 132,-10 154,2c12,6 32,24 46,40c13,16 28,29 33,29c25,0 41,-75 37,-165c-6,-130 -37,-188 -177,-332l-109,-112l-23,47c-12,26 -39,77 -61,114c-44,77 -46,88 -17,114c17,16 20,26 14,64c-8,56 -36,119 -62,143c-20,17 -21,17 -43,-35c-13,-29 -25,-79 -28,-111c-5,-63 -7,-64 -71,-33c-30,14 -36,26 -50,101c-6,33 -24,96 -41,140c-35,95 -40,180 -12,214c40,48 242,67 322,30zm-1015,-54c14,-13 25,-30 25,-38c0,-7 -19,-31 -41,-52c-67,-64 -119,-135 -119,-161c0,-21 5,-24 35,-24c72,0 145,56 145,112c0,30 19,30 34,0c27,-52 22,-92 -18,-156c-34,-57 -48,-116 -26,-116c26,0 78,30 94,54c14,22 20,25 32,15c20,-16 18,-55 -6,-118l-21,-53l21,-39c11,-22 20,-55 20,-74c0,-54 27,-45 54,18c38,85 38,100 11,173c-40,105 -29,141 20,64c26,-41 116,-97 136,-84c11,6 89,-62 89,-78c0,-4 -33,-23 -73,-41c-66,-31 -74,-37 -86,-75c-12,-34 -12,-50 0,-101c7,-34 17,-61 22,-61c5,0 29,19 52,43c31,31 47,58 60,102c9,33 22,66 28,74c13,15 77,45 83,38c2,-2 -5,-27 -16,-55c-23,-60 -26,-102 -7,-102c6,0 26,9 42,20c17,11 33,20 36,20c15,0 17,-48 7,-116l-11,-72l66,-132c60,-117 79,-170 61,-170c-3,0 -30,21 -60,46c-44,38 -54,52 -54,78c0,62 -82,158 -110,129c-5,-4 -12,-25 -15,-45c-6,-32 -3,-40 19,-61c24,-22 36,-57 19,-57c-4,0 -33,7 -66,17c-46,13 -61,22 -69,42c-27,71 -43,92 -83,111c-23,11 -44,20 -48,20c-4,0 -7,-20 -7,-44c0,-36 5,-49 25,-64c14,-11 25,-25 25,-31c0,-19 -61,-12 -97,10c-25,16 -44,20 -69,16c-39,-7 -124,-53 -124,-67c0,-18 83,-70 110,-70c15,0 47,9 71,20c47,21 99,26 99,10c0,-5 -21,-21 -47,-34c-27,-13 -59,-36 -73,-51c-24,-26 -25,-27 -6,-41c48,-34 136,-4 196,67c36,43 46,49 81,49c28,0 39,-4 39,-15c0,-8 -6,-15 -14,-15c-33,0 -68,-45 -73,-94c-6,-47 -5,-48 18,-41c47,14 119,58 149,91c17,19 37,34 46,34c46,0 110,-80 144,-181c18,-53 21,-77 16,-139c-14,-153 -26,-174 -219,-376c-101,-106 -252,-234 -275,-234c-14,0 -32,80 -32,137c0,82 40,223 63,223c5,0 25,-13 44,-30c25,-22 44,-30 73,-30c21,0 42,5 45,10c4,6 -7,33 -25,59c-22,35 -43,54 -70,65c-36,14 -40,19 -40,51c0,45 18,45 63,0c25,-25 44,-35 66,-35c40,0 101,25 101,41c0,7 -20,32 -45,55c-53,48 -47,54 41,47c61,-6 62,-5 105,34c47,44 46,57 -7,79c-48,20 -79,17 -127,-10c-23,-13 -66,-27 -96,-30l-54,-7l6,31c8,36 -8,74 -39,95c-22,14 -24,13 -49,-28c-28,-48 -31,-84 -13,-133c10,-29 9,-37 -15,-73c-15,-23 -31,-41 -36,-41c-5,0 -20,19 -33,42c-31,57 -64,75 -115,63c-27,-7 -39,-16 -41,-30c-4,-31 55,-93 118,-123c75,-37 82,-60 46,-148c-14,-36 -33,-94 -41,-127c-13,-57 -13,-64 5,-105c31,-70 27,-155 -10,-217c-39,-66 -46,-74 -104,-118c-39,-29 -58,-37 -92,-37c-80,0 -213,68 -243,123c-12,22 -11,36 4,101c12,52 16,98 13,152c-8,129 32,282 137,519c34,78 66,152 70,165c4,14 16,37 26,52c14,18 19,44 19,87c0,58 -1,61 -24,61c-47,0 -69,-31 -74,-104c-2,-36 -7,-66 -11,-66c-4,0 -22,11 -41,25c-36,27 -72,31 -116,15c-23,-9 -32,-6 -71,24c-60,47 -84,80 -90,125c-5,36 -3,39 27,49c41,15 62,4 119,-60c36,-40 104,-88 126,-88c3,0 5,18 5,40c0,49 -44,103 -98,121c-53,17 -56,23 -28,56c34,41 50,43 132,22c56,-15 80,-17 123,-9c30,6 56,10 58,10c1,0 0,7 -4,15c-9,25 -63,49 -123,55l-55,5l23,23c25,25 75,29 149,10c44,-11 50,-9 100,18c29,15 53,31 53,34c0,15 -153,100 -181,100c-4,0 -43,-31 -85,-69c-43,-39 -81,-68 -86,-65c-4,3 -5,23 -2,45c7,44 -20,133 -39,126c-6,-2 -20,-15 -31,-30c-15,-21 -19,-41 -18,-104c0,-68 -3,-83 -25,-115c-14,-21 -32,-38 -39,-38c-19,0 -18,61 1,124c17,55 15,61 -15,51c-36,-11 -80,-82 -80,-130c0,-64 -46,-105 -69,-62c-27,52 -30,87 -12,130c24,53 55,82 111,102c40,14 130,88 130,107c0,12 -67,27 -92,20c-13,-3 -38,-14 -55,-25l-33,-19l0,26c0,34 53,93 91,101c35,8 92,-26 140,-84c24,-30 31,-33 39,-21c21,32 8,73 -38,122c-27,29 -27,35 -2,38c43,6 61,-2 90,-42c31,-43 124,-128 141,-128c16,0 10,113 -9,150c-27,54 -73,75 -157,73c-38,-1 -78,0 -89,3c-16,5 -15,9 13,38c30,30 31,36 31,114c0,45 -3,82 -6,82c-3,0 -21,-7 -39,-16c-61,-28 -115,-120 -115,-192c0,-43 -9,-56 -64,-96c-22,-17 -47,-47 -58,-72c-10,-24 -22,-44 -26,-44c-4,0 -13,34 -20,77c-6,42 -14,79 -17,81c-12,12 -76,-65 -91,-110c-15,-45 -37,-68 -65,-68c-18,0 -4,191 19,267c26,82 52,121 118,182c61,56 101,71 189,71c71,0 111,19 198,91c70,58 112,65 152,24zm-1703,-290c21,-49 46,-123 54,-164c9,-41 27,-104 41,-140c24,-64 26,-76 30,-336c2,-148 2,-279 -1,-291c-3,-11 -17,-33 -30,-47c-21,-22 -34,-27 -75,-27c-43,0 -57,6 -108,45c-69,51 -140,125 -152,158c-5,13 -17,64 -26,113c-14,76 -15,100 -4,169c17,116 53,227 94,293c19,32 35,65 35,75c0,15 48,190 65,235c12,33 40,2 77,-83zm-2066,28c-2,-10 -8,-38 -11,-63c-11,-66 -21,-80 -60,-80c-18,0 -55,-9 -81,-20c-26,-11 -49,-19 -51,-16c-2,2 -7,20 -10,40c-5,31 -1,42 23,67c35,37 74,59 106,59c13,1 34,7 48,15c33,19 42,18 36,-2zm4590,-238c33,-13 36,-18 29,-42c-3,-16 -10,-57 -15,-93c-4,-36 -11,-73 -15,-82c-11,-27 16,-22 63,11c26,19 43,41 47,60c8,39 18,39 44,2c65,-90 77,-189 40,-302c-18,-53 -23,-94 -26,-234c-4,-188 -8,-215 -26,-215c-8,0 -17,28 -25,81c-6,44 -26,119 -43,167c-110,304 -119,343 -119,525c0,75 2,137 5,137c3,0 22,-7 41,-15zm-1376,-298c-24,-98 -26,-100 -59,-83c-16,9 -31,22 -34,30c-8,20 15,108 37,140l17,27l26,-32c26,-30 26,-32 13,-82zm-680,83c45,-23 79,-25 126,-8c27,10 37,9 59,-6l27,-18l-61,-62c-33,-34 -61,-66 -61,-72c0,-6 12,-16 26,-23c26,-11 26,-12 9,-39c-10,-15 -27,-37 -39,-50c-19,-22 -21,-22 -34,-5c-46,61 -129,262 -119,288c8,20 20,19 67,-5zm440,-175c13,-24 11,-28 -37,-78c-27,-29 -60,-65 -72,-82c-21,-28 -21,-30 -4,-36c10,-4 45,-8 79,-8c74,-1 99,20 113,93c5,26 13,52 18,57c17,17 71,-38 119,-120c93,-157 131,-212 201,-290c122,-136 140,-194 98,-306c-15,-38 -30,-97 -33,-130c-8,-69 -23,-78 -87,-51l-36,16l36,65c31,56 36,71 30,104c-10,58 -23,65 -73,35c-33,-20 -45,-35 -59,-74c-10,-28 -23,-50 -29,-50c-21,0 -74,80 -74,113c0,8 18,22 40,32c23,10 55,34 72,53c28,33 30,39 26,99c-3,41 -10,69 -21,80c-15,15 -19,13 -61,-28c-35,-36 -46,-54 -51,-92c-5,-30 -12,-47 -21,-47c-19,0 -27,42 -20,104c7,51 5,55 -32,102c-59,74 -79,89 -96,75c-8,-7 -21,-32 -30,-56c-21,-62 -7,-105 53,-164c45,-43 70,-86 57,-98c-3,-3 -26,9 -52,26c-53,35 -95,39 -150,16c-31,-13 -34,-17 -24,-35c16,-30 79,-69 140,-87c87,-25 108,-39 136,-94c14,-28 23,-53 20,-56c-2,-3 -20,0 -38,6c-24,8 -46,8 -83,-2c-67,-16 -70,-38 -10,-76c58,-37 105,-45 165,-30c46,12 52,11 119,-19c39,-18 84,-32 101,-32c41,0 54,-28 46,-104c-8,-79 -37,-136 -96,-189c-41,-37 -64,-48 -142,-70c-114,-31 -223,-42 -277,-27c-51,13 -91,61 -134,160c-32,74 -32,76 -33,245c0,94 -4,217 -9,275c-4,58 -9,123 -10,145c-4,82 15,283 34,356c22,86 125,286 150,292c9,3 19,5 22,6c3,0 12,-10 19,-24zm635,-504c36,-21 43,-46 19,-72c-22,-25 -31,-24 -40,4c-3,12 -24,41 -45,64c-22,24 -39,45 -39,48c0,7 65,-20 105,-44zm1544,-20c10,-10 31,-46 46,-80c25,-55 32,-62 68,-72l40,-10l-7,-46c-3,-25 -6,-52 -6,-61c0,-12 -9,-13 -52,-7c-29,5 -136,9 -238,10c-235,3 -240,3 -240,16c0,20 115,140 169,176c48,32 173,92 194,93c4,0 16,-9 26,-19zm-3794,-105c54,-39 63,-50 88,-116c15,-40 26,-74 24,-76c-2,-2 -41,10 -88,26c-46,17 -85,30 -85,30c-1,0 -4,21 -7,48c-3,26 -8,59 -12,74c-8,29 -1,58 13,58c4,0 35,-20 67,-44zm556,-168c59,-74 89,-124 117,-193c24,-59 24,-60 6,-111c-16,-49 -16,-56 -1,-117c11,-45 14,-87 10,-135c-4,-50 -1,-83 10,-116c9,-25 12,-48 8,-50c-4,-3 -27,4 -50,16c-103,51 -182,220 -268,576c-4,17 -1,22 16,22c14,0 31,-17 55,-53c36,-57 82,-100 97,-91c5,3 9,28 9,55c0,73 -42,155 -86,169c-19,7 -37,16 -40,22c-8,12 43,58 63,58c7,0 31,-24 54,-52zm2273,-580c13,-19 23,-68 13,-68c-4,0 -101,-37 -142,-55l-40,-17l56,58c31,33 61,69 68,82c15,28 26,28 45,0zm-1934,-1562c-17,-216 -21,-246 -34,-246c-20,0 -36,47 -36,106c0,30 -5,64 -10,74c-17,31 4,130 41,195c30,53 33,56 41,35c5,-13 4,-85 -2,-164z" fill="#cccccc7a" id="svg_2"/>
  </g>
 </g>
</svg>